<svg width="64" height="70" viewBox="0 0 64 70" fill="none" xmlns="http://www.w3.org/2000/svg">
<path fill-rule="evenodd" clip-rule="evenodd" d="M26.3733 63.4786L25.8721 57.5644L20.5584 61.1424C20.3204 61.2951 20.1244 61.5051 19.9885 61.753C19.8647 62.007 19.8035 62.287 19.81 62.5695V63.4786H26.3733ZM37.7013 57.5644L37.1932 63.4786H43.7667V62.5695C43.7733 62.287 43.712 62.007 43.5882 61.753C43.4522 61.5051 43.2562 61.2952 43.0183 61.1424L37.7013 57.5644ZM59.2858 35.7874L39.1532 26.3603V38.024L60.2676 42.2093V37.3448C60.2752 37.0171 60.1858 36.6944 60.0105 36.4173C59.8352 36.1403 59.5819 35.9211 59.2824 35.7874H59.2858ZM39.1532 22.7068L60.6898 32.7891C61.5595 33.1912 62.2958 33.8341 62.8111 34.6415C63.3264 35.449 63.5991 36.3871 63.5972 37.3448V44.2299C63.5963 44.6709 63.4206 45.0935 63.1086 45.4053C62.7966 45.7172 62.3736 45.8928 61.9324 45.8937C61.7969 45.8924 61.6621 45.8751 61.5307 45.8422L39.0914 41.4066L38.0273 53.7942L44.8618 58.3911C45.5531 58.8453 46.1204 59.4642 46.5128 60.1921C46.9007 60.9244 47.1023 61.7409 47.0998 62.5695V65.1355C47.098 65.5761 46.9213 65.9981 46.6085 66.3087C46.2958 66.6194 45.8724 66.7933 45.4315 66.7924H36.9254L36.7777 68.4288C36.7557 68.8526 36.5718 69.2518 36.264 69.5442C35.9562 69.8365 35.5479 69.9997 35.1232 70H28.4776C28.0617 69.999 27.6613 69.8424 27.3551 69.5612C27.0488 69.2799 26.8591 68.8943 26.8231 68.4802L26.6754 66.7924H18.1589C17.7179 66.7933 17.2948 66.6194 16.982 66.3087C16.6693 65.9981 16.4925 65.5761 16.4907 65.1355V62.5695C16.4921 61.7414 16.6935 60.9258 17.0778 60.1921C17.4733 59.4664 18.0399 58.8482 18.7287 58.3911L25.5633 53.7942L24.4992 41.4066L2.05971 45.8422C1.9261 45.8757 1.789 45.893 1.65126 45.8937C1.43353 45.8928 1.21808 45.849 1.01727 45.7649C0.81646 45.6808 0.634132 45.558 0.480811 45.4035C0.327491 45.249 0.206183 45.0659 0.123695 44.8645C0.041207 44.6631 -0.000821791 44.4475 8.16481e-05 44.2299V37.3448C-0.00540044 36.3872 0.265287 35.4483 0.779683 34.6404C1.29408 33.8325 2.03041 33.1898 2.9007 32.7891L24.4374 22.7068V9.808C24.4398 9.50307 24.4684 9.19892 24.5231 8.89891C24.5852 8.59558 24.6667 8.29651 24.7669 8.00354L26.5484 3.36891L26.5931 3.23851C26.9539 2.28502 27.5985 1.46491 28.4399 0.888613C29.2764 0.305666 30.2727 -0.00467303 31.2924 9.81679e-05H32.274C33.2623 -0.00613196 34.2298 0.284312 35.0511 0.833755L35.1268 0.878353C35.9716 1.45635 36.6176 2.28044 36.977 3.23851L38.7516 7.85603L38.8134 7.98637C38.9217 8.2747 39.0045 8.57203 39.0606 8.87488C39.1208 9.17421 39.1518 9.47866 39.1532 9.78397V22.6827V22.7068ZM27.7498 10.2951C27.9593 10.1522 28.1785 10.0238 28.4056 9.91091C29.1013 9.56726 29.8675 9.38992 30.6436 9.3929H32.9367C33.7097 9.38861 34.4728 9.56606 35.1645 9.91091C35.394 10.0192 35.6134 10.1478 35.82 10.2951V9.808C35.8211 9.70596 35.8154 9.60394 35.8029 9.50267C35.7778 9.3962 35.7445 9.29181 35.7033 9.19048L35.6656 9.06014L33.8841 4.43582C33.7677 4.11102 33.5559 3.82885 33.2765 3.62619L33.2181 3.5953C32.9382 3.42463 32.6157 3.33665 32.2878 3.34148H31.3061C30.9594 3.3332 30.6184 3.43005 30.3278 3.61933C30.0454 3.82577 29.8284 4.10928 29.7031 4.43582L29.6482 4.56616L27.8734 9.19048C27.8357 9.28888 27.8048 9.38979 27.7808 9.49241C27.7808 9.57817 27.7567 9.67764 27.7567 9.808V10.2951H27.7498ZM35.82 15.3757L34.2994 13.386C34.1394 13.176 33.9341 13.0048 33.6987 12.8852C33.461 12.7718 33.2001 12.7154 32.9367 12.7205H30.6436C30.3801 12.7143 30.119 12.7708 29.8816 12.8852C29.6462 13.0048 29.4409 13.176 29.2809 13.386L27.7498 15.3757V40.5695L29.8506 64.9262V65.0223L29.9914 66.6621H33.5751L33.7228 65.0429C33.7178 64.9973 33.7178 64.9513 33.7228 64.9057L35.8029 40.5489V15.3552L35.82 15.3757ZM24.4271 26.3534L4.29428 35.7805C3.99389 35.9133 3.73977 36.1322 3.56381 36.4094C3.38784 36.6866 3.29805 37.0097 3.30579 37.3379V42.2093L24.4271 38.0378V26.3534Z" fill="white"/>
</svg>
