<svg width="70" height="45" viewBox="0 0 70 45" fill="none" xmlns="http://www.w3.org/2000/svg">
<path fill-rule="evenodd" clip-rule="evenodd" d="M19.2678 30.4735C18.3888 30.4737 17.5234 30.6906 16.7482 31.1049C15.9731 31.5192 15.3121 32.1181 14.8238 32.8486C14.3356 33.5791 14.0351 34.4187 13.9491 35.2929C13.863 36.1672 13.994 37.0492 14.3304 37.8608C14.6668 38.6724 15.1983 39.3886 15.8778 39.9459C16.5573 40.5032 17.3638 40.8845 18.226 41.0559C19.0881 41.2274 19.9793 41.1837 20.8205 40.9288C21.6617 40.6739 22.427 40.2157 23.0487 39.5946L23.1184 39.5341C23.8499 38.7797 24.3427 37.8266 24.5351 36.7938C24.7274 35.761 24.6108 34.6945 24.1999 33.7276C23.789 32.7606 23.102 31.9362 22.2248 31.3575C21.3475 30.7787 20.319 30.4712 19.2678 30.4735ZM43.6001 26.5406H32.0484V36.167H43.6001V26.5406ZM27.4109 34.2913C27.1023 32.6548 26.3056 31.1499 25.1254 29.9743C24.0595 28.9105 22.7235 28.1573 21.2611 27.7959C19.7988 27.4345 18.2655 27.4785 16.8264 27.9232C15.3872 28.3678 14.0966 29.1963 13.0935 30.3195C12.0905 31.4427 11.4129 32.818 11.1338 34.2974H9.81397C9.3519 34.2959 8.90916 34.1122 8.58197 33.7861C8.26085 33.4651 8.0801 33.0299 8.07941 32.576V26.5588H29.1182V34.3095L27.4109 34.2913ZM5.13706 26.5406H4.66785C3.47544 26.5393 2.32854 26.0826 1.46203 25.264L1.36826 25.1762C0.492734 24.3018 0.000575833 23.1157 0 21.8787V4.66493C0.00184795 3.42996 0.493934 2.24619 1.36826 1.37346C1.79877 0.937817 2.31162 0.592067 2.87704 0.356279C3.44245 0.120492 4.04909 -0.000613985 4.66176 2.34064e-06H41.8504C42.4617 -0.000250153 43.0669 0.121032 43.6308 0.356833C44.1947 0.592635 44.7059 0.938226 45.1348 1.37346C45.6012 1.84396 45.9641 2.40657 46.2005 3.02526H61.7631C62.782 3.02568 63.7728 3.35951 64.584 3.97574C65.3952 4.59196 65.9823 5.45666 66.2554 6.43773L69.8305 19.1015C69.8904 19.2991 69.9329 19.5015 69.9576 19.7065C69.9846 19.9183 69.9987 20.1314 70 20.3449V35.804C70.0012 35.9966 69.9642 36.1876 69.8912 36.3659C69.8183 36.5443 69.7108 36.7064 69.5749 36.8431C69.439 36.9797 69.2774 37.0882 69.0994 37.1622C68.9214 37.2362 68.7306 37.2743 68.5378 37.2743H65.3684C65.0673 38.9359 64.2644 40.4656 63.0678 41.6578C61.9974 42.7243 60.6556 43.478 59.1875 43.8374C57.7195 44.1968 56.1811 44.1481 54.7387 43.6967C53.2963 43.2453 52.0049 42.4083 51.0042 41.2763C50.0035 40.1443 49.3316 38.7604 49.0611 37.2743H46.5304V37.6131C46.5308 37.8051 46.4933 37.9952 46.42 38.1727C46.3466 38.3502 46.2388 38.5114 46.103 38.6472C45.9671 38.783 45.8058 38.8906 45.6282 38.9639C45.4507 39.0372 45.2604 39.0747 45.0683 39.0743H30.5803C30.1923 39.0743 29.82 38.9204 29.5454 38.6465C29.2707 38.3725 29.1159 38.0009 29.1151 37.6131V37.2046H27.4381C27.1511 38.853 26.3699 40.3753 25.198 41.5701L25.1254 41.6578C24.357 42.4269 23.4443 43.0371 22.4397 43.4534C21.4352 43.8697 20.3584 44.084 19.2709 44.084C18.1834 44.084 17.1065 43.8697 16.1019 43.4534C15.0973 43.0371 14.1847 42.4269 13.4163 41.6578C12.2051 40.45 11.3991 38.896 11.1096 37.2107H9.81397C9.20084 37.2114 8.59368 37.0903 8.02777 36.8546C7.46185 36.6188 6.94849 36.273 6.51742 35.8372C5.64327 34.9656 5.15115 33.7829 5.14916 32.5488V26.5315L5.13706 26.5406ZM4.67691 23.6092H41.8867C42.338 23.5991 42.768 23.4155 43.0872 23.0965C43.4064 22.7776 43.5901 22.3478 43.6001 21.8968V4.65284C43.5922 4.20364 43.4099 3.77509 43.0915 3.45785C42.9331 3.29785 42.7445 3.17084 42.5367 3.08412C42.3289 2.9974 42.1059 2.95273 41.8807 2.95265H4.66785C4.21327 2.95447 3.77793 3.1361 3.45701 3.45785C3.29678 3.61591 3.16971 3.80439 3.08342 4.0122C2.99712 4.22002 2.95329 4.44299 2.95445 4.66798V21.8817C2.95839 22.3362 3.14106 22.7708 3.46301 23.0918L3.51752 23.1463C3.8374 23.4388 4.25543 23.6007 4.68901 23.6001L4.67691 23.6092ZM57.2102 35.8342V35.8191V35.8342ZM57.2102 32.9118C56.4457 32.9136 55.7131 33.2182 55.1729 33.7589V33.777C54.6307 34.3188 54.3249 35.0529 54.3223 35.8191C54.3244 36.5854 54.6265 37.3205 55.1639 37.8672H55.179C55.4481 38.1368 55.7677 38.3507 56.1196 38.4966C56.4716 38.6425 56.8489 38.7176 57.2299 38.7176C57.6109 38.7176 57.9882 38.6425 58.3401 38.4966C58.6921 38.3507 59.0117 38.1368 59.2808 37.8672C59.5504 37.5985 59.7644 37.2793 59.9103 36.9279C60.0563 36.5764 60.1315 36.1996 60.1315 35.8191C60.1315 35.4386 60.0563 35.0618 59.9103 34.7103C59.7644 34.3589 59.5504 34.0397 59.2808 33.771C59.0123 33.4998 58.6926 33.2845 58.3403 33.1376C57.988 32.9906 57.6102 32.9149 57.2284 32.9148L57.2102 32.9118ZM19.2709 35.8282C19.2709 35.8494 19.2557 35.8282 19.2496 35.8282H19.2648H19.2496H19.2648H19.2709ZM19.2709 32.927C19.6517 32.927 20.0287 33.0027 20.38 33.1496C20.7313 33.2966 21.0499 33.5119 21.3172 33.7831H21.3324C21.6011 34.0516 21.8142 34.3705 21.9596 34.7214C22.1051 35.0723 22.18 35.4484 22.18 35.8282C22.18 36.208 22.1051 36.5841 21.9596 36.935C21.8142 37.2859 21.6011 37.6047 21.3324 37.8732H21.3172C20.769 38.3968 20.0373 38.6849 19.2791 38.6759C18.5209 38.6669 17.7963 38.3615 17.2607 37.825C16.7251 37.2886 16.4211 36.5638 16.4138 35.806C16.4064 35.0482 16.6964 34.3177 17.2215 33.771L17.2366 33.7528C17.7788 33.2133 18.5118 32.909 19.2769 32.9058L19.2709 32.927ZM53.2356 5.97791V18.5812H66.6428L63.4673 7.24247C63.3737 6.87231 63.1565 6.54517 62.8515 6.31522C62.5465 6.08526 62.1722 5.96628 61.7903 5.97791H53.2356ZM67.0788 21.5096H51.7643C51.3749 21.5096 51.0016 21.355 50.7262 21.0799C50.4509 20.8047 50.2962 20.4315 50.2962 20.0424V5.97791H46.5274V34.367H49.0581C49.4065 32.4589 50.4136 30.7334 51.9041 29.4911C53.3946 28.2488 55.2739 27.5684 57.2147 27.5684C59.1556 27.5684 61.0349 28.2488 62.5254 29.4911C64.0159 30.7334 65.023 32.4589 65.3715 34.367H67.0788V27.4754H64.0789C63.7006 27.4583 63.3435 27.296 63.0819 27.0224C62.8203 26.7489 62.6744 26.3851 62.6744 26.0067C62.6744 25.6283 62.8203 25.2644 63.0819 24.9909C63.3435 24.7173 63.7006 24.555 64.0789 24.5379H67.0788V21.5126V21.5096ZM57.2102 30.4946C56.5078 30.4931 55.8121 30.63 55.1628 30.8977C54.5135 31.1654 53.9234 31.5586 53.4264 32.0546C52.9295 32.5507 52.5355 33.1399 52.2669 33.7885C51.9983 34.4371 51.8604 35.1323 51.8612 35.8342C51.8614 36.892 52.1754 37.9259 52.7635 38.8053C53.3516 39.6847 54.1874 40.3701 55.1653 40.7748C56.1431 41.1795 57.219 41.2854 58.2571 41.0791C59.2951 40.8728 60.2487 40.3636 60.9972 39.6158C61.495 39.1197 61.8901 38.5303 62.1596 37.8814C62.4292 37.2325 62.568 36.5368 62.5682 35.8342C62.5644 34.4168 61.9996 33.0584 60.9972 32.0557C60.5012 31.5574 59.9109 31.1628 59.2607 30.8948C58.6105 30.6268 57.9135 30.4908 57.2102 30.4946Z" fill="white"/>
</svg>
