<svg width="70" height="70" viewBox="0 0 70 70" fill="none" xmlns="http://www.w3.org/2000/svg">
<path fill-rule="evenodd" clip-rule="evenodd" d="M55.3599 39.5706C55.3599 40.035 55.1754 40.4804 54.8471 40.8088C54.5188 41.1372 54.0736 41.3217 53.6093 41.3217C53.145 41.3217 52.6998 41.1372 52.3715 40.8088C52.0432 40.4804 51.8588 40.035 51.8588 39.5706C51.8528 38.1615 51.7105 36.7562 51.4338 35.3745C51.1637 34.0048 50.756 32.666 50.2171 31.3782L50.1845 31.2874C49.6604 30.0259 49.0118 28.8199 48.2486 27.6871C47.468 26.5171 46.5712 25.4289 45.5719 24.4392C44.5789 23.4436 43.4915 22.5469 42.3251 21.7617C41.1672 20.9847 39.9347 20.3251 38.646 19.7926L38.5624 19.7526C35.9795 18.7073 33.2206 18.1659 30.4344 18.1578C29.9691 18.1578 29.5229 17.9729 29.1939 17.6438C28.8649 17.3148 28.68 16.8684 28.68 16.403C28.68 15.9376 28.8649 15.4913 29.1939 15.1622C29.5229 14.8332 29.9691 14.6483 30.4344 14.6483C33.6735 14.6461 36.8816 15.2793 39.8772 16.512L39.9751 16.5447C41.4773 17.1654 42.913 17.9358 44.2607 18.8444C45.6191 19.7558 46.8877 20.7947 48.0489 21.947C49.1993 23.1125 50.2378 24.3836 51.1505 25.7434C52.0392 27.0647 52.7959 28.4701 53.4096 29.9395L53.453 30.0231C54.0745 31.5387 54.5489 33.1105 54.8695 34.7169C55.1885 36.3187 55.3478 37.9482 55.3452 39.5815L55.3599 39.5706ZM70 39.5706C70.0005 36.9729 69.7486 34.3813 69.2481 31.8324C68.7455 29.2905 67.9938 26.8045 67.0037 24.4102C66.0118 22.0241 64.7881 19.7413 63.3501 17.5947C60.4594 13.2633 56.7417 9.54586 52.4107 6.65573C50.2629 5.214 47.9783 3.98741 45.5901 2.9937C40.7874 1.00609 35.6389 -0.0113239 30.4415 9.50642e-05C30.2116 9.50094e-05 29.984 0.0454152 29.7716 0.133416C29.5592 0.221417 29.3662 0.350375 29.2036 0.51298C29.0411 0.675584 28.9121 0.868624 28.8241 1.08108C28.7362 1.29353 28.6909 1.52122 28.6909 1.75118C28.6909 1.98113 28.7362 2.20888 28.8241 2.42133C28.9121 2.63378 29.0411 2.82682 29.2036 2.98943C29.3662 3.15203 29.5592 3.28099 29.7716 3.36899C29.984 3.45699 30.2116 3.50231 30.4415 3.50231C35.1776 3.49203 39.8689 4.42107 44.2439 6.2357C48.6189 8.05033 52.5908 10.7146 55.93 14.0743C59.2877 17.4162 61.9514 21.3894 63.7677 25.7652C65.5652 30.1458 66.4904 34.8353 66.4916 39.5706C66.4916 40.036 66.6765 40.4823 67.0054 40.8114C67.3344 41.1405 67.7804 41.3253 68.2457 41.3253C68.7109 41.3253 69.1572 41.1405 69.4862 40.8114C69.8151 40.4823 70 40.036 70 39.5706ZM24.5106 31.1639L9.25667 15.9053C8.92662 15.577 8.48013 15.3927 8.01464 15.3927C7.54916 15.3927 7.10267 15.577 6.77261 15.9053C6.70724 15.9707 6.66004 16.0434 6.60193 16.1088C1.79664 22.6243 -0.512122 30.6483 0.0953989 38.7222C0.702919 46.7961 4.18623 54.3839 9.91238 60.1065C15.6385 65.8291 23.2273 69.3066 31.2993 69.9069C39.3713 70.5072 47.3908 68.1904 53.8999 63.3776C54.273 63.0996 54.5206 62.6851 54.5887 62.2247C54.6567 61.7644 54.5397 61.2958 54.263 60.9217C54.2094 60.8524 54.1511 60.7868 54.0886 60.7255L38.8349 45.4669C39.2728 44.8471 39.6383 44.1791 39.9244 43.476C40.9656 40.9539 40.9656 38.1219 39.9244 35.5997C39.4094 34.3523 38.6513 33.2198 37.6944 32.2683C36.7396 31.3154 35.6084 30.5577 34.3639 30.0377C31.8431 29.006 29.018 29.006 26.4972 30.0377C25.7956 30.3262 25.1282 30.6918 24.5071 31.1276L24.5106 31.1639ZM36.3034 42.9529C36.4495 42.6961 36.5793 42.4304 36.692 42.1573C37.0371 41.3367 37.2149 40.4554 37.2149 39.5652C37.2149 38.6749 37.0371 37.7936 36.692 36.973C36.0027 35.316 34.6869 33.9985 33.031 33.3073C31.3709 32.6244 29.5085 32.6244 27.8483 33.3073C27.5725 33.4169 27.3074 33.5519 27.0565 33.7106L36.3034 42.9529ZM8.2689 19.8943C4.56175 25.714 2.95084 32.6249 3.70245 39.4846C4.45407 46.3442 7.52309 52.7419 12.4024 57.6202C17.2818 62.4985 23.6793 65.5652 30.5372 66.3135C37.3952 67.0618 44.3031 65.4468 50.1191 61.7354L35.3045 46.9274C35.276 46.9014 35.2495 46.8734 35.2247 46.8438C35.1973 46.8119 35.1668 46.7827 35.1338 46.7566L23.1959 34.8114L23.1706 34.7859L23.1378 34.7532L8.2689 19.8943Z" fill="#2C9E56"/>
</svg>
