<svg width="70" height="59" viewBox="0 0 70 59" fill="none" xmlns="http://www.w3.org/2000/svg">
<path fill-rule="evenodd" clip-rule="evenodd" d="M22.4384 36.9671L21.8148 36.5379C21.527 36.332 21.2005 36.1861 20.8551 36.1088C20.5084 36.0499 20.1537 36.0562 19.8094 36.1274C19.4616 36.1897 19.131 36.3245 18.8387 36.523C18.5533 36.7226 18.3097 36.9762 18.1217 37.2694L17.1583 38.7621C17.1214 38.8356 17.0775 38.9056 17.0275 38.971L16.0641 40.4637C15.9951 40.58 15.9434 40.7057 15.911 40.8369C15.8932 40.9738 15.8995 41.1128 15.9296 41.2475C15.9593 41.3659 16.0142 41.4765 16.0903 41.5721C16.2145 41.7196 16.3621 41.8457 16.5272 41.9453L18.1441 43.0649L22.4384 36.9298V36.9671ZM28.1554 40.8817L23.9581 47.0951L21.1126 45.1397L25.4106 39.0046L28.1554 40.8705V40.8817ZM33.9731 44.871L31.1351 42.9267L26.9379 49.1402L29.8542 51.1405L33.9619 44.871H33.9731ZM40.8253 53.6855L42.4569 54.7005C43.0979 55.0997 43.8518 55.2792 44.6041 55.2117C45.352 55.1356 46.0529 54.8111 46.5945 54.2901L47.0649 53.8608L42.6586 50.8381L40.8253 53.6855ZM36.7176 53.4019C36.5346 53.6818 36.3443 53.9541 36.1688 54.2303C36.0231 54.4447 35.8102 54.6049 35.5637 54.6856H35.5115C35.3447 54.7306 35.1677 54.7202 35.0074 54.6558L32.8303 53.1631L36.938 46.9011L39.6789 48.767C38.7491 50.2037 37.8116 51.6629 36.8856 53.0959C36.8445 53.1518 36.8035 53.2115 36.7662 53.2713L36.7064 53.372L36.7176 53.4019ZM15.1381 3.68327H3.60707V34.8437H7.7519L15.1381 3.68327ZM12.0052 32.5822L17.9164 7.65012L35.7506 9.4339L20.2912 14.7182C20.0671 14.795 19.8603 14.9152 19.6827 15.072C19.5051 15.2288 19.3601 15.419 19.256 15.6318C19.152 15.8446 19.0908 16.0758 19.0762 16.3122C19.0616 16.5486 19.0939 16.7855 19.171 17.0094C19.2073 17.1227 19.2562 17.2317 19.3167 17.3341L20.2801 19.297C21.11 20.9786 22.506 22.3145 24.2232 23.0699C25.9449 23.8333 27.875 23.9898 29.6974 23.514L41.7176 20.439L57.7184 36.4185C58.3963 37.0881 58.829 37.9662 58.9469 38.9114C59.0353 39.6613 58.9178 40.4211 58.6071 41.1093L48.4727 32.4702C48.1087 32.1595 47.6362 32.006 47.159 32.0434C46.6818 32.0808 46.2388 32.3062 45.9278 32.6699C45.6168 33.0336 45.4632 33.5059 45.5007 33.9829C45.5382 34.4598 45.7637 34.9024 46.1277 35.2132L56.5832 44.1358C55.9409 44.9755 55.2576 45.789 54.5406 46.5839L43.9805 38.5419C43.7925 38.3978 43.5779 38.2922 43.349 38.231C43.1201 38.1698 42.8812 38.1542 42.6463 38.1852C42.4114 38.2162 42.1848 38.2933 41.9797 38.4117C41.7745 38.5302 41.5949 38.6879 41.4507 38.8758C41.3065 39.0638 41.2008 39.2783 41.1396 39.5071C41.0784 39.7359 41.0627 39.9744 41.0938 40.2092C41.1248 40.444 41.2017 40.6704 41.3203 40.8754C41.4389 41.0805 41.5967 41.2601 41.7848 41.4042L52.0238 49.1999C51.277 49.9201 50.5302 50.6329 49.7834 51.3382L31.7252 38.9524L31.6691 38.9114L31.6317 38.8889L23.8535 33.5599C23.1711 33.0831 22.3987 32.7505 21.5833 32.5822C20.7637 32.4181 19.9195 32.4181 19.0999 32.5822C18.3013 32.7278 17.5408 33.0346 16.8648 33.4837C16.1887 33.9328 15.6114 34.515 15.168 35.1945L12.0052 32.5561V32.5822ZM52.0947 7.66504L23.3943 17.4685L23.5176 17.7111C23.9676 18.6347 24.731 19.3687 25.672 19.7822C26.6579 20.2075 27.7572 20.2942 28.7976 20.0285L41.8222 16.6698C42.1246 16.5899 42.4427 16.5913 42.7443 16.6739C43.046 16.7565 43.3206 16.9173 43.54 17.1401L57.6847 31.2686L52.0835 7.65388L52.0947 7.66504ZM18.7528 4.10863L43.9431 6.63506L51.2546 4.14223L50.8213 2.29877C50.7758 2.13983 50.7534 1.97518 50.7543 1.80986C50.7553 1.33079 50.9458 0.871632 51.2845 0.532527C51.6231 0.193421 52.0821 0.00197049 52.5615 0H68.1851C68.6655 0.000981712 69.126 0.191826 69.466 0.530932C69.806 0.870039 69.998 1.3298 70 1.80986V36.5902C69.999 37.0705 69.8074 37.5309 69.4671 37.8702C69.1269 38.2095 68.6658 38.4001 68.1851 38.4001H62.5206V38.5083C62.7272 40.2611 62.332 42.0321 61.4002 43.5313C61.135 43.9605 60.8588 44.3784 60.5712 44.8001C60.5426 44.8454 60.5116 44.889 60.478 44.9308C57.7715 48.5959 54.6695 51.9522 51.2284 54.9393L51.1575 54.9991L50.4929 55.6074L49.0739 56.9172C47.9507 57.9776 46.5066 58.6348 44.9688 58.7855C43.4309 58.9361 41.8866 58.5717 40.5787 57.7494L38.8386 56.6746C38.2288 57.3796 37.4251 57.8897 36.5273 58.1412L36.4302 58.1748C35.885 58.3217 35.3159 58.3589 34.7562 58.2839C34.1965 58.2089 33.6574 58.0234 33.1701 57.7382C33.1077 57.7097 33.0478 57.6761 32.991 57.6375C26.7998 53.5325 20.6683 49.17 14.507 44.9493C14.0373 44.6291 13.6182 44.2404 13.2635 43.7962C12.8727 43.3007 12.5938 42.7266 12.4458 42.1132C12.2952 41.5028 12.2685 40.8683 12.3674 40.2473C12.4783 39.6342 12.708 39.0485 13.0434 38.5232L13.2225 38.2546L11.0904 36.4744L10.9523 37.038C10.8577 37.4334 10.6328 37.7857 10.3139 38.0381C9.99491 38.2905 9.60031 38.4286 9.19345 38.43H1.81476C1.57693 38.4305 1.34125 38.3842 1.12133 38.2936C0.901418 38.2031 0.701494 38.0702 0.532975 37.9025C0.364456 37.7347 0.230722 37.5355 0.139255 37.3161C0.0477882 37.0967 0.000489868 36.8614 0 36.6238V1.8397C0.000978722 1.60251 0.0486629 1.36786 0.140395 1.1491C0.232126 0.930339 0.366051 0.731784 0.53457 0.564756C0.703089 0.397729 0.902936 0.265474 1.12259 0.175611C1.34224 0.0857478 1.57742 0.0400165 1.81476 0.0409986H17.4234C17.6602 0.0405081 17.895 0.0866209 18.114 0.17675C18.333 0.266879 18.5319 0.399324 18.6997 0.566351C18.8675 0.733378 19.0009 0.931743 19.0919 1.15024C19.183 1.36874 19.2303 1.603 19.2307 1.8397C19.2311 2.00473 19.2096 2.16913 19.1672 2.32861L18.7528 4.0788V4.10863ZM66.3778 3.6236H54.8506L62.2329 34.8026H66.3741L66.3778 3.6236Z" fill="white"/>
</svg>
