<svg width="56" height="70" viewBox="0 0 56 70" fill="none" xmlns="http://www.w3.org/2000/svg">
<path fill-rule="evenodd" clip-rule="evenodd" d="M30.8496 16.2128V23.5598C30.8456 23.8067 30.8913 24.0519 30.984 24.2807C31.0768 24.5096 31.2147 24.7174 31.3894 24.892C31.5613 25.0648 31.766 25.2016 31.9915 25.2943C32.217 25.3869 32.4586 25.4336 32.7024 25.4316H40.0341L35.3485 20.7356L30.8496 16.2228V16.2128ZM42.3136 57.8438V64.9244C42.3103 65.4141 42.1168 65.8835 41.7738 66.2333C41.5981 66.4066 41.3899 66.5434 41.1611 66.636C40.9323 66.7286 40.6875 66.7751 40.4407 66.7728H5.07227C4.82832 66.7712 4.58692 66.7215 4.36219 66.6266C4.13746 66.5318 3.9338 66.3936 3.76256 66.22L3.70926 66.1666C3.39244 65.8235 3.21518 65.3746 3.21255 64.9077V15.7865C3.21092 15.5444 3.25794 15.3044 3.35066 15.0808C3.44339 14.8571 3.58011 14.6543 3.75259 14.4843L3.81239 14.4244C4.15243 14.109 4.59817 13.9319 5.0621 13.9281H27.6037V23.5598C27.6055 24.9054 28.1411 26.1953 29.0932 27.1467V27.1634C29.5652 27.6356 30.1258 28.0102 30.7428 28.2657C31.3598 28.5211 32.0213 28.6525 32.6892 28.6522H42.3136L42.2969 57.5607V57.8537L42.3136 57.8438ZM40.9073 5.50869V12.8557C40.9071 13.1032 40.9557 13.3483 41.0507 13.5769C41.1456 13.8056 41.2848 14.0132 41.4603 14.1879C41.8044 14.5343 42.2717 14.7307 42.7601 14.7341H50.1184L40.9073 5.52201V5.50869ZM52.3945 17.938V54.2402C52.3932 54.4834 52.3434 54.7239 52.2478 54.9475C52.1522 55.1711 52.0129 55.3733 51.838 55.5424C51.6683 55.7166 51.4659 55.8555 51.2422 55.951C51.0185 56.0464 50.7782 56.0966 50.535 56.0987H45.5361V27.1801C45.5413 27.1325 45.5413 27.0845 45.5361 27.0369C45.536 26.8036 45.4856 26.5731 45.3884 26.3611C45.2913 26.149 45.1495 25.9604 44.9729 25.808L30.4397 11.2737C30.2883 11.0978 30.1004 10.9567 29.8893 10.8601C29.6782 10.7636 29.4488 10.7138 29.2167 10.7142H13.2737V5.08232C13.2697 4.83544 13.3154 4.59036 13.4081 4.3615C13.5009 4.13265 13.6388 3.9247 13.8135 3.75015C14.1638 3.40767 14.6333 3.21431 15.1232 3.21066H37.6646V12.8424C37.6664 14.188 38.2013 15.4782 39.1525 16.4306C40.1037 17.3831 41.3937 17.9203 42.7401 17.9247L52.3945 17.938ZM21.3285 35.7728C20.7439 35.1875 20.0491 34.7234 19.2845 34.4074C18.5198 34.0913 17.7002 33.9294 16.8727 33.931C15.2388 33.9309 13.6689 34.565 12.4938 35.6995L12.4271 35.7728C11.6388 36.5563 11.0741 37.5358 10.791 38.6103H22.9746C22.7009 37.5686 22.1625 36.6153 21.4117 35.8427L21.335 35.7728H21.3285ZM19.1657 25.1452C18.5528 24.5453 17.729 24.2093 16.8711 24.2093C16.0132 24.2093 15.1896 24.5453 14.5767 25.1452C13.9716 25.757 13.6326 26.5829 13.6335 27.4432C13.6312 27.8695 13.7135 28.292 13.8754 28.6864C14.0372 29.0809 14.2756 29.4393 14.5767 29.7412C14.8774 30.0413 15.2344 30.279 15.6273 30.4407C16.0202 30.6025 16.4413 30.6851 16.8662 30.6837C17.2918 30.6861 17.7134 30.6039 18.107 30.4421C18.5005 30.2804 18.8582 30.0421 19.159 29.7412C19.4616 29.4399 19.7016 29.0818 19.8652 28.6874C20.0288 28.293 20.1127 27.8701 20.1121 27.4432C20.1093 26.5817 19.7668 25.756 19.159 25.1452H19.1657ZM16.8662 20.9754C16.0187 20.9745 15.1794 21.1415 14.3969 21.4668C13.6144 21.7921 12.904 22.2691 12.3071 22.8704H12.2904C11.0891 24.0655 10.4057 25.6845 10.3876 27.3785C10.3695 29.0724 11.0182 30.7055 12.1938 31.926C11.4823 32.331 10.8251 32.8246 10.2377 33.3947L10.1344 33.4847C9.24913 34.3685 8.54732 35.4184 8.06922 36.5741C7.59111 37.7297 7.34613 38.9684 7.34835 40.2189C7.34835 40.431 7.3903 40.641 7.47182 40.8368C7.55334 41.0326 7.67277 41.2104 7.8233 41.3599C7.97383 41.5094 8.15245 41.6277 8.3489 41.7079C8.54534 41.7882 8.75563 41.8289 8.96785 41.8275H24.791C25.0028 41.828 25.2127 41.7867 25.4085 41.7061C25.6044 41.6255 25.7824 41.5071 25.9325 41.3578C26.0826 41.2084 26.2017 41.031 26.2832 40.8356C26.3646 40.6402 26.4068 40.4306 26.4073 40.2189C26.4095 37.737 25.4366 35.3534 23.6979 33.5812L23.6145 33.4847C23.0022 32.8678 22.3055 32.3407 21.5451 31.9194C22.7174 30.703 23.3657 29.0757 23.3507 27.3869C23.3358 25.6981 22.6587 24.0825 21.465 22.8871V22.8704C20.8636 22.2682 20.1494 21.7903 19.3632 21.464C18.577 21.1377 17.734 20.9695 16.8827 20.9688L16.8662 20.9754ZM36.5849 45.8174H8.96785C8.53963 45.8174 8.12895 45.9875 7.82615 46.2901C7.52335 46.5927 7.35324 47.0031 7.35324 47.4311C7.35324 47.859 7.52335 48.2694 7.82615 48.572C8.12895 48.8747 8.53963 49.0447 8.96785 49.0447H36.6016C37.0299 49.0447 37.4405 48.8747 37.7433 48.572C38.0461 48.2694 38.2162 47.859 38.2162 47.4311C38.2162 47.0031 38.0461 46.5927 37.7433 46.2901C37.4405 45.9875 37.0299 45.8174 36.6016 45.8174H36.5849ZM30.9594 52.8947H8.9646C8.74595 52.8848 8.5276 52.9193 8.32266 52.996C8.11771 53.0728 7.93049 53.1903 7.77225 53.3414C7.61401 53.4925 7.4881 53.6742 7.40205 53.8753C7.316 54.0764 7.27147 54.2929 7.27147 54.5117C7.27147 54.7304 7.316 54.9468 7.40205 55.1479C7.4881 55.3491 7.61401 55.5307 7.77225 55.6818C7.93049 55.833 8.11771 55.9504 8.32266 56.0272C8.5276 56.104 8.74595 56.1386 8.9646 56.1286H30.9594C31.1781 56.1386 31.3966 56.104 31.6016 56.0272C31.8065 55.9504 31.9937 55.833 32.152 55.6818C32.3102 55.5307 32.4361 55.3491 32.5222 55.1479C32.6082 54.9468 32.6525 54.7304 32.6525 54.5117C32.6525 54.2929 32.6082 54.0764 32.5222 53.8753C32.4361 53.6742 32.3102 53.4925 32.152 53.3414C31.9937 53.1903 31.8065 53.0728 31.6016 52.996C31.3966 52.9193 31.1781 52.8848 30.9594 52.8947ZM5.07878 10.7009H10.051V5.08232C10.0523 4.41422 10.1856 3.75298 10.4429 3.13636C10.7003 2.51973 11.0766 1.95989 11.5507 1.48881C12.0238 1.01621 12.5856 0.641482 13.2037 0.386032C13.8219 0.130582 14.4842 -0.000644201 15.1531 1.03817e-05H39.3042C39.5415 -0.00083848 39.776 0.0503782 39.9913 0.149927C40.2067 0.249475 40.3977 0.394947 40.5507 0.576197L55.0607 15.1037C55.2384 15.2531 55.3809 15.4398 55.4783 15.6504C55.5756 15.8611 55.6253 16.0906 55.6237 16.3227C55.6267 16.3726 55.6267 16.4227 55.6237 16.4726L55.6072 54.2202C55.6079 55.5649 55.0745 56.8551 54.1242 57.8072C53.6542 58.2797 53.0954 58.655 52.4801 58.9116C51.8648 59.1682 51.2049 59.301 50.5382 59.3025H45.5394V64.9177C45.5348 66.2617 44.9996 67.5497 44.0499 68.5014C43.5786 68.9752 43.0183 69.3515 42.4013 69.6087C41.7842 69.8659 41.1226 69.9988 40.4541 70H5.07878C3.73222 69.9989 2.44133 69.4634 1.48973 68.5113L1.39311 68.4114C0.49972 67.4671 0.00126427 66.2172 1.83231e-07 64.9177V15.7931C-0.000179566 15.1251 0.131892 14.4636 0.388704 13.8469C0.645516 13.2301 1.02211 12.6703 1.49644 12.1996L1.59631 12.103C2.53763 11.2088 3.7868 10.7104 5.08549 10.7108L5.07878 10.7009Z" fill="white"/>
</svg>
