<svg width="70" height="60" viewBox="0 0 70 60" fill="none" xmlns="http://www.w3.org/2000/svg">
<path fill-rule="evenodd" clip-rule="evenodd" d="M48.3432 21.1109H21.6249C21.1722 21.1109 20.738 21.2907 20.4179 21.6107C20.0977 21.9306 19.9178 22.3645 19.9178 22.817C19.9178 23.2695 20.0977 23.7035 20.4179 24.0234C20.738 24.3434 21.1722 24.5231 21.6249 24.5231H48.3432C48.796 24.5231 49.2301 24.3434 49.5503 24.0234C49.8704 23.7035 50.0504 23.2695 50.0504 22.817C50.0504 22.3645 49.8704 21.9306 49.5503 21.6107C49.2301 21.2907 48.796 21.1109 48.3432 21.1109ZM13.9782 15.0092H55.9936C56.4343 14.9893 56.8503 14.8002 57.1551 14.4815C57.4599 14.1627 57.63 13.7388 57.63 13.2979C57.63 12.857 57.4599 12.4331 57.1551 12.1143C56.8503 11.7956 56.4343 11.6065 55.9936 11.5865H13.9782C13.7468 11.576 13.5154 11.6125 13.2985 11.6937C13.0816 11.775 12.8835 11.8994 12.716 12.0594C12.5485 12.2193 12.4152 12.4115 12.3242 12.6244C12.2331 12.8372 12.1862 13.0664 12.1862 13.2979C12.1862 13.5294 12.2331 13.7585 12.3242 13.9714C12.4152 14.1843 12.5485 14.3764 12.716 14.5364C12.8835 14.6963 13.0816 14.8207 13.2985 14.902C13.5154 14.9833 13.7468 15.0197 13.9782 15.0092ZM13.9782 40.8647H32.0477C32.5005 40.8647 32.9347 40.685 33.2548 40.3651C33.575 40.0451 33.7549 39.6112 33.7549 39.1587C33.7549 38.7063 33.575 38.2723 33.2548 37.9523C32.9347 37.6324 32.5005 37.4526 32.0477 37.4526H13.9782C13.5254 37.4526 13.091 37.6324 12.7709 37.9523C12.4507 38.2723 12.271 38.7063 12.271 39.1587C12.271 39.6112 12.4507 40.0451 12.7709 40.3651C13.091 40.685 13.5254 40.8647 13.9782 40.8647ZM36.3684 50.791H5.48815C4.03182 50.7883 2.6363 50.2076 1.60836 49.1766C0.579659 48.1479 0.00125649 46.7534 0 45.2991V5.49893C0.0018666 4.0411 0.582254 2.64348 1.61374 1.61264C2.64523 0.581794 4.04361 0.0018769 5.50236 1.14659e-05H64.4976C65.2195 -0.00147135 65.9343 0.140883 66.6005 0.418686C67.2667 0.696488 67.8707 1.10411 68.3774 1.61791C68.8898 2.12576 69.2968 2.72976 69.5752 3.39512C69.8537 4.06049 69.9981 4.77418 70 5.49538V45.285C69.9977 46.0062 69.8532 46.7199 69.5748 47.3852C69.2964 48.0505 68.8895 48.6544 68.3774 49.1625C67.8916 49.6486 67.3201 50.0406 66.6916 50.3187L67.9012 52.4337C68.1477 52.8168 68.2362 53.2805 68.1482 53.7274C68.1024 53.9458 68.0141 54.1531 67.8881 54.3373C67.762 54.5215 67.6007 54.6791 67.4136 54.8009C67.2265 54.9228 67.0173 55.0065 66.7977 55.0473C66.5781 55.0881 66.3526 55.0851 66.1342 55.0386L61.3479 54.0446L59.817 58.6835C59.6917 59.0833 59.4195 59.4208 59.0551 59.6281C58.6638 59.8538 58.199 59.9157 57.7622 59.8001C57.3253 59.6845 56.952 59.401 56.7236 59.0112L51.6622 50.2482L46.6044 59.0112C46.4392 59.2955 46.1952 59.526 45.9019 59.6748C45.6086 59.8235 45.2783 59.8842 44.9512 59.8496C44.6241 59.8149 44.3141 59.6863 44.0585 59.4794C43.8029 59.2725 43.6128 58.9961 43.511 58.6835L41.9838 54.0446L37.1975 55.0386C36.979 55.086 36.7532 55.0897 36.5333 55.0493C36.3134 55.0089 36.1037 54.9254 35.9163 54.8034C35.729 54.6814 35.5677 54.5235 35.4419 54.3388C35.316 54.1541 35.2282 53.9463 35.1833 53.7274C35.0978 53.3161 35.1644 52.8879 35.3704 52.5218L36.3721 50.7946L36.3684 50.791ZM55.6126 35.2037C54.9787 34.5735 54.2029 34.1044 53.3502 33.8358C52.4975 33.5672 51.5928 33.5068 50.7119 33.6599C49.8311 33.813 48.9996 34.175 48.2877 34.7155C47.5757 35.2561 47.0041 35.9595 46.6203 36.7665C46.2366 37.5736 46.052 38.4609 46.0823 39.3539C46.1126 40.2469 46.3569 41.1196 46.7945 41.8988C47.2321 42.6781 47.8503 43.341 48.5972 43.832C49.3442 44.3231 50.1981 44.6279 51.0874 44.721H51.1438H51.1649H51.2284H51.299H51.3306H51.9479C53.0249 44.6631 54.0624 44.295 54.9349 43.6611C55.8073 43.0272 56.4775 42.1547 56.8649 41.1486C57.2522 40.1426 57.3402 39.0461 57.118 37.9913C56.8958 36.9364 56.3729 35.9683 55.6126 35.2037ZM59.1716 44.1288C58.8402 44.6369 58.4571 45.1095 58.0287 45.5389C56.9598 46.6149 55.6343 47.4009 54.1771 47.823L57.7678 54.0164L58.5789 51.5489C58.7103 51.1387 58.9932 50.7941 59.3701 50.5852C59.7469 50.3762 60.1893 50.3187 60.6071 50.4244L63.0938 50.9391L62.6105 50.0931C62.5424 50.0021 62.4844 49.904 62.4376 49.8005L59.1716 44.143V44.1288ZM51.6587 30.156C49.2708 30.1569 46.981 31.1053 45.2925 32.7928C43.6039 34.4803 42.6549 36.7687 42.654 39.1552C42.654 39.3984 42.6539 39.631 42.6751 39.8601L38.3402 47.3718H5.48815C4.93487 47.3703 4.40484 47.1497 4.01391 46.7585C3.81983 46.5659 3.66563 46.337 3.56031 46.0847C3.45499 45.8325 3.40059 45.5619 3.40014 45.2886V5.49893C3.40144 5.22458 3.45701 4.95316 3.56354 4.70031C3.67007 4.44745 3.82555 4.21815 4.02101 4.0255C4.41402 3.63777 4.94301 3.41891 5.49525 3.41567H64.4905C65.0452 3.41707 65.5771 3.63606 65.9719 4.0255C66.1657 4.21879 66.3195 4.44841 66.4242 4.70128C66.5289 4.95414 66.5827 5.22526 66.5822 5.49893V45.2886C66.5842 45.5619 66.5312 45.833 66.4263 46.0855C66.3215 46.338 66.1669 46.5668 65.9719 46.7585C65.6934 47.0386 65.3413 47.2341 64.9562 47.3225L60.6529 39.8742C60.6529 39.638 60.6777 39.3984 60.6777 39.1693C60.6749 36.7822 59.7244 34.4937 58.0347 32.8064C56.3451 31.1192 54.0544 30.171 51.6658 30.17L51.6587 30.156ZM40.8691 49.8253C40.8307 49.8992 40.7885 49.9709 40.7423 50.0402L40.2342 50.925L42.7033 50.4103C43.1211 50.3037 43.5639 50.3608 43.9409 50.5699C44.318 50.7789 44.6008 51.1241 44.7314 51.5348L45.5497 54.0023L49.1298 47.8089C47.6727 47.3868 46.3469 46.6008 45.278 45.5248C44.8555 45.0999 44.4741 44.6361 44.1388 44.1395L40.8551 49.8287L40.8691 49.8253Z" fill="white"/>
</svg>
