<svg width="70" height="41" viewBox="0 0 70 41" fill="none" xmlns="http://www.w3.org/2000/svg">
<path fill-rule="evenodd" clip-rule="evenodd" d="M16.5614 21.8838V2.9532H22.6433V21.8838H16.5614ZM13.5819 12.9904V21.8838H8.42654V12.9904H13.5819ZM25.6169 17.2838H38.014V21.8991H25.6107V17.2838H25.6169ZM40.9936 17.2838H53.3906V21.8991H40.9936V17.2838ZM30.3333 14.3122H25.6107V1.48734C25.6111 1.29216 25.573 1.09881 25.4986 0.918373C25.4241 0.737939 25.3147 0.573988 25.1768 0.435836C25.0388 0.297684 24.8749 0.188071 24.6945 0.113288C24.5141 0.0385043 24.3208 -4.16582e-07 24.1255 0H15.067C14.672 -8.35635e-07 14.2932 0.15662 14.0136 0.435462C13.734 0.714304 13.5766 1.09259 13.5757 1.48734V10.0065H6.9445C6.7496 10.0061 6.55662 10.0442 6.37644 10.1184C6.19627 10.1927 6.03249 10.3017 5.89454 10.4393C5.75659 10.5769 5.64707 10.7403 5.5724 10.9202C5.49772 11.1001 5.45927 11.293 5.45927 11.4878V18.0842H4.23176C3.62897 18.0827 3.03396 18.2191 2.49201 18.4829C1.95081 18.7475 1.47345 19.1263 1.09275 19.593C0.703044 20.0488 0.409708 20.5787 0.230461 21.1508C0.0468032 21.7238 -0.0281943 22.326 0.00945703 22.9264L0.871748 36.0211C0.934332 37.1315 1.38378 38.1849 2.14215 38.9988C2.51964 39.4025 2.97569 39.725 3.48222 39.9465C3.98875 40.168 4.53518 40.2838 5.08806 40.2868H56.002C56.7647 40.2897 57.5116 40.069 58.1501 39.6521C58.7896 39.2381 59.3167 38.6723 59.6844 38.0053L69.8107 20.3013C70.0014 19.9597 70.0503 19.5569 69.947 19.1796C69.8437 18.8023 69.5965 18.4805 69.2583 18.2835C69.033 18.1583 68.7797 18.0918 68.5219 18.0903H56.3856V15.7872C56.3864 15.5922 56.3487 15.3989 56.2745 15.2185C56.2004 15.0381 56.0914 14.8741 55.9537 14.7359C55.816 14.5977 55.6522 14.488 55.472 14.4132C55.2918 14.3384 55.0985 14.2999 54.9034 14.2999H48.6958V8.19414C48.6958 7.8013 48.5396 7.42458 48.2616 7.1468C47.9837 6.86902 47.6066 6.71293 47.2135 6.71293H31.8431C31.648 6.71253 31.4548 6.75055 31.2745 6.82477C31.0941 6.89898 30.9302 7.00795 30.792 7.14549C30.6538 7.28303 30.5439 7.44646 30.4689 7.62639C30.3939 7.80631 30.3551 7.99922 30.3547 8.19414V14.2999L30.3333 14.3122ZM45.71 14.3122H33.3036V9.69373H45.71V14.2999V14.3122ZM56.3641 23.3865C56.3645 23.5812 56.3265 23.7741 56.2522 23.9542C56.1779 24.1343 56.0687 24.2979 55.931 24.4358C55.7934 24.5737 55.6299 24.683 55.4499 24.7576C55.2699 24.8323 55.0769 24.8707 54.882 24.8707H6.95068C6.75553 24.8711 6.56225 24.833 6.38187 24.7585C6.2015 24.6841 6.03759 24.5748 5.8996 24.4369C5.7616 24.299 5.65214 24.1352 5.57764 23.9549C5.50315 23.7746 5.46505 23.5815 5.46545 23.3865V21.0466H4.23794C4.0809 21.0462 3.92544 21.0775 3.78076 21.1386C3.62241 21.2237 3.48421 21.3418 3.37565 21.4851C3.23789 21.6482 3.13369 21.8368 3.06887 22.0402C3.00241 22.2638 2.97635 22.4974 2.99208 22.7302L3.85437 35.8187C3.87569 36.2321 4.0394 36.6254 4.31773 36.9319C4.41905 37.0428 4.54156 37.1322 4.67808 37.1949C4.81459 37.2576 4.96243 37.2922 5.1126 37.2969H56.0266C56.2151 37.2985 56.3998 37.244 56.5573 37.1405C56.7843 36.9809 56.9714 36.7709 57.1037 36.5271L65.9504 21.0405H56.3732L56.3641 23.3865Z" fill="white"/>
</svg>
