<svg width="70" height="36" viewBox="0 0 70 36" fill="none" xmlns="http://www.w3.org/2000/svg">
<path fill-rule="evenodd" clip-rule="evenodd" d="M44.9046 10.4713H58.8983L57.872 3.6276C57.8554 3.56628 57.8267 3.50891 57.7875 3.45888C57.7484 3.40886 57.6996 3.36722 57.644 3.33639C57.3386 3.14942 56.9851 3.05587 56.6272 3.06731H44.9078V10.4713H44.9046ZM32.3965 17.8404V9.00569C32.3965 8.59936 32.235 8.20967 31.9475 7.92236C31.66 7.63504 31.27 7.47359 30.8634 7.47359C30.4568 7.47359 30.0669 7.63504 29.7794 7.92236C29.4919 8.20967 29.3304 8.59936 29.3304 9.00569V17.8404C29.3304 18.2468 29.4919 18.6364 29.7794 18.9238C30.0669 19.2111 30.4568 19.3725 30.8634 19.3725C31.27 19.3725 31.66 19.2111 31.9475 18.9238C32.235 18.6364 32.3965 18.2468 32.3965 17.8404ZM20.3603 17.8404V9.00569C20.3603 8.59852 20.1984 8.208 19.9103 7.92008C19.6222 7.63217 19.2315 7.47045 18.8241 7.47045C18.4166 7.47045 18.026 7.63217 17.7379 7.92008C17.4498 8.208 17.2879 8.59852 17.2879 9.00569V17.8404C17.2879 18.2476 17.4498 18.6381 17.7379 18.926C18.026 19.2139 18.4166 19.3757 18.8241 19.3757C19.2315 19.3757 19.6222 19.2139 19.9103 18.926C20.1984 18.6381 20.3603 18.2476 20.3603 17.8404ZM20.1069 26.846H20.0341C19.326 26.8568 18.6504 27.1447 18.1523 27.6477C17.6543 28.1508 17.3735 28.829 17.3703 29.5367C17.3754 30.2489 17.6597 30.9308 18.1621 31.436C18.6602 31.9306 19.3319 32.2111 20.0341 32.2178H20.1069C20.8053 32.213 21.4741 31.9346 21.9693 31.4423C22.2208 31.1937 22.4208 30.898 22.5577 30.5721C22.6947 30.2462 22.766 29.8965 22.7675 29.543C22.7681 29.1892 22.6978 28.8389 22.5607 28.5127C22.4236 28.1865 22.2225 27.8911 21.9693 27.6438L21.9218 27.5773C21.4275 27.1193 20.7808 26.8611 20.1069 26.8524V26.846ZM11.5358 23.7788H7.84576V4.49494C7.84576 4.1174 7.99546 3.75522 8.26199 3.48767C8.52852 3.22012 8.89019 3.06898 9.26795 3.06731H41.8386V23.7788H11.5358ZM11.5707 32.2305H11.6467C12.35 32.2249 13.0232 31.9443 13.5219 31.4486C14.022 30.9422 14.3048 30.2609 14.3105 29.5493C14.3089 28.8412 14.0287 28.162 13.5303 27.6586C13.0319 27.1552 12.3553 26.8679 11.6467 26.8587H11.577C10.8751 26.8664 10.2037 27.1468 9.70506 27.6406C9.45372 27.8888 9.25452 28.1846 9.11909 28.5107C8.98366 28.8369 8.91475 29.1868 8.91639 29.5399C8.91765 30.2523 9.2012 30.9352 9.70506 31.4391L9.76847 31.4961C10.2574 31.9584 10.9039 32.2176 11.577 32.221L11.5707 32.2305ZM58.0209 32.2305H58.0938C58.792 32.2243 59.4602 31.9461 59.9562 31.455C60.461 30.9513 60.7457 30.2685 60.7481 29.5557C60.7491 29.2024 60.6796 28.8524 60.5437 28.5263C60.4077 28.2002 60.208 27.9045 59.9562 27.6564L59.9023 27.5899C59.4162 27.1411 58.7838 26.8836 58.1223 26.8651H58.0019C57.3063 26.8764 56.6421 27.1566 56.1489 27.6469C55.8976 27.8951 55.6984 28.1909 55.563 28.5171C55.4275 28.8432 55.3586 29.1931 55.3603 29.5462C55.3615 30.2586 55.6451 30.9415 56.1489 31.4454L56.2059 31.5024C56.6966 31.966 57.3457 32.2252 58.0209 32.2273V32.2305ZM49.5575 32.2305H49.6304C50.3219 32.1969 50.9739 31.8988 51.4514 31.3979C51.9289 30.897 52.1952 30.2317 52.1952 29.5399C52.1952 28.848 51.9289 28.1827 51.4514 27.6818C50.9739 27.1809 50.3219 26.8828 49.6304 26.8492H49.5227C48.8286 26.863 48.1663 27.1429 47.6729 27.6311C47.4222 27.8797 47.2233 28.1756 47.0879 28.5016C46.9525 28.8277 46.8833 29.1774 46.8843 29.5304C46.8869 30.2425 47.1702 30.9249 47.6729 31.4296L47.7299 31.4866C48.2219 31.9482 48.8701 32.2071 49.5449 32.2115L49.5575 32.2305ZM44.9173 23.7788H61.8725V13.5259H44.9046V23.7661L44.9173 23.7788ZM3.15166 23.7788H4.78293V4.49494C4.78876 3.3046 5.26449 2.16468 6.10672 1.32298C6.94895 0.481277 8.08954 0.00584639 9.28061 2.1528e-05H56.6241C57.5954 -0.00284216 58.546 0.280052 59.3575 0.813502C59.7701 1.0754 60.1214 1.423 60.3875 1.83265C60.6537 2.2423 60.8285 2.70441 60.9 3.18758L61.9928 10.4681C62.7616 10.4873 63.4929 10.8039 64.0327 11.3513C64.3159 11.6279 64.5402 11.959 64.6921 12.3246C64.844 12.6901 64.9202 13.0826 64.9164 13.4784V23.7692H66.8739V8.14468C66.8739 7.73835 67.0353 7.34867 67.3228 7.06135C67.6104 6.77403 68.0003 6.61258 68.4069 6.61258C68.8135 6.61258 69.2034 6.77403 69.4909 7.06135C69.7784 7.34867 69.9399 7.73835 69.9399 8.14468V24.8835C70.02 25.1617 70.02 25.4568 69.9399 25.735V28.5522C69.9399 28.9586 69.7784 29.3482 69.4909 29.6356C69.2034 29.9229 68.8135 30.0843 68.4069 30.0843C68.0003 30.0843 67.6104 29.9229 67.3228 29.6356C67.0353 29.3482 66.8739 28.9586 66.8739 28.5522V26.846H63.1363C63.5706 27.6765 63.7975 28.5996 63.7975 29.5367C63.7975 30.4737 63.5706 31.3969 63.1363 32.2273H68.467C68.8628 32.2453 69.2364 32.415 69.5101 32.7013C69.7838 32.9875 69.9366 33.3682 69.9366 33.7641C69.9366 34.16 69.7838 34.5408 69.5101 34.827C69.2364 35.1133 68.8628 35.283 68.467 35.3009H1.60913C1.40132 35.3104 1.19379 35.2776 0.999002 35.2046C0.80421 35.1317 0.626168 35.02 0.47577 34.8763C0.325372 34.7327 0.205705 34.5601 0.123921 34.3689C0.0421365 34.1778 0 33.972 0 33.7641C0 33.5562 0.0421365 33.3505 0.123921 33.1593C0.205705 32.9682 0.325372 32.7956 0.47577 32.6519C0.626168 32.5083 0.80421 32.3966 0.999002 32.3236C1.19379 32.2507 1.40132 32.2179 1.60913 32.2273H6.50603C6.06565 31.3988 5.83529 30.4749 5.83529 29.5367C5.83529 28.5985 6.06565 27.6746 6.50603 26.846H3.14538V27.8337C3.15481 28.0414 3.12203 28.2488 3.04901 28.4435C2.97598 28.6382 2.86418 28.816 2.72045 28.9663C2.57673 29.1166 2.40407 29.2362 2.21279 29.318C2.02151 29.3997 1.81562 29.4419 1.60759 29.4419C1.39956 29.4419 1.19366 29.3997 1.00238 29.318C0.811105 29.2362 0.638345 29.1166 0.494619 28.9663C0.350894 28.816 0.239188 28.6382 0.166162 28.4435C0.0931363 28.2488 0.060356 28.0414 0.06979 27.8337V14.5958C0.0877564 14.2003 0.257591 13.8269 0.544014 13.5534C0.830436 13.2799 1.21141 13.1272 1.60759 13.1272C2.00376 13.1272 2.38464 13.2799 2.67106 13.5534C2.95748 13.8269 3.12741 14.2003 3.14538 14.5958V23.7756L3.15166 23.7788ZM43.3779 26.846H41.8322V28.7168C41.8322 29.1232 41.6707 29.5128 41.3832 29.8002C41.0957 30.0875 40.7057 30.2489 40.2992 30.2489C39.8926 30.2489 39.5027 30.0875 39.2152 29.8002C38.9277 29.5128 38.7662 29.1232 38.7662 28.7168V26.846H30.8856V28.7168C30.8856 29.1223 30.7244 29.5112 30.4375 29.7979C30.1506 30.0847 29.7615 30.2457 29.3558 30.2457C28.95 30.2457 28.5609 30.0847 28.274 29.7979C27.9871 29.5112 27.8259 29.1223 27.8259 28.7168V26.846H25.1621C25.5964 27.6765 25.8232 28.5996 25.8232 29.5367C25.8232 30.4737 25.5964 31.3969 25.1621 32.2273H44.4834C44.049 31.3969 43.8222 30.4737 43.8222 29.5367C43.8222 28.5996 44.049 27.6765 44.4834 26.846H43.3779Z" fill="white"/>
</svg>
