<svg width="70" height="70" viewBox="0 0 70 70" fill="none" xmlns="http://www.w3.org/2000/svg">
<path fill-rule="evenodd" clip-rule="evenodd" d="M36.2701 61.1499L41.0144 65.891L41.0391 65.9194C41.4207 66.2851 41.9276 66.4915 42.4564 66.4965C42.7182 66.5017 42.9783 66.4546 43.2217 66.3579C43.465 66.2612 43.6866 66.1169 43.8734 65.9335C46.2189 63.5682 48.5928 61.2313 50.9595 58.8767L51.041 58.7882C51.231 58.5966 51.3814 58.3694 51.4835 58.1197C51.5856 57.87 51.6377 57.6026 51.6364 57.3329C51.6397 57.0631 51.589 56.7955 51.4874 56.5456C51.3858 56.2957 51.2353 56.0686 51.0447 55.8776L46.3004 51.1435L36.2772 61.1428L36.2701 61.1499ZM33.5066 29.9695C34.2399 31.3319 35.1671 32.5806 36.2595 33.6767C37.3543 34.7703 38.6058 35.6951 39.9727 36.4209L23.8625 52.5174C23.4762 52.9 22.9537 53.1139 22.4098 53.1122C21.8633 53.1129 21.3387 52.8978 20.9501 52.5138L20.8614 52.4324C19.6993 51.264 18.5302 50.0777 17.361 48.9093C17.1771 48.7226 17.0323 48.5013 16.935 48.2581C16.8376 48.015 16.7898 47.7548 16.7942 47.493C16.7954 46.9632 17.0037 46.4548 17.375 46.0766L17.3999 46.0519L33.4995 29.966L33.5066 29.9695ZM35.689 26.365C35.689 26.411 35.714 26.4499 35.7282 26.4888C36.3328 28.2812 37.3399 29.9115 38.6724 31.2548C40.2766 32.8508 42.2912 33.9723 44.4934 34.4953C46.6957 35.0184 48.9997 34.9225 51.1509 34.2184C51.7389 34.0211 52.3129 33.7845 52.8692 33.5103L36.4189 17.0774C36.1365 17.6309 35.8997 18.2064 35.7104 18.7982C35.2989 20.0323 35.0907 21.325 35.0939 22.6259C35.0943 23.8955 35.2939 25.1572 35.6856 26.365H35.689ZM28.1709 53.0591L38.1941 43.0492L43.8628 48.7146L33.8397 58.7244L28.1709 53.0591ZM8.76202 33.659L18.7783 23.642L14.0376 18.908C13.8471 18.7173 13.6205 18.5662 13.3712 18.4634C13.1218 18.3607 12.8546 18.3084 12.5849 18.3096C12.314 18.3075 12.0455 18.3594 11.7949 18.4621C11.5443 18.5648 11.3166 18.7164 11.1252 18.908L11.0331 18.9859C8.68049 21.3441 6.34202 23.72 3.96819 26.0675C3.60016 26.4488 3.39676 26.9592 3.4014 27.4889C3.40603 28.0186 3.61841 28.5254 3.99306 28.9001L4.01792 28.932L8.75856 33.6661L8.76202 33.659ZM21.1981 26.0604L11.1819 36.0774L16.8508 41.7427L26.8669 31.7328L21.1981 26.0675V26.0604ZM61.78 22.8241C61.78 23.2773 61.6 23.7118 61.2794 24.0322C60.9588 24.3526 60.5239 24.5326 60.0706 24.5326C59.6172 24.5326 59.1823 24.3526 58.8617 24.0322C58.5411 23.7118 58.3611 23.2773 58.3611 22.8241C58.3568 22.0836 58.2832 21.3451 58.1414 20.6182C58.0015 19.8903 57.7878 19.1784 57.5037 18.4937C57.2293 17.8162 56.8825 17.1704 56.4691 16.5675C56.0521 15.9559 55.5774 15.3857 55.0518 14.8644C54.5297 14.341 53.9605 13.8669 53.3512 13.448C52.7407 13.0428 52.0929 12.6967 51.4167 12.4141L51.3351 12.3823C50.6789 12.1191 49.9991 11.9187 49.305 11.7838C48.5824 11.6333 47.8464 11.5562 47.1083 11.5537C46.8778 11.5642 46.6474 11.5279 46.4312 11.447C46.2151 11.366 46.0177 11.2421 45.8508 11.0828C45.6839 10.9234 45.551 10.7319 45.4603 10.5198C45.3695 10.3078 45.3227 10.0795 45.3227 9.84881C45.3227 9.61815 45.3695 9.38987 45.4603 9.17778C45.551 8.96569 45.6839 8.7742 45.8508 8.61485C46.0177 8.45551 46.2151 8.33159 46.4312 8.25065C46.6474 8.16971 46.8778 8.13338 47.1083 8.14389C48.0683 8.1391 49.0263 8.23165 49.9676 8.42008C50.8801 8.59589 51.7728 8.86281 52.632 9.21679L52.7276 9.25574C53.6124 9.6194 54.4576 10.0726 55.2501 10.6083C57.6599 12.2197 59.5406 14.5057 60.6568 17.1801C61.0275 18.0703 61.3077 18.9956 61.4931 19.9419C61.6779 20.8831 61.7694 21.8402 61.766 22.7993L61.78 22.8241ZM69.9716 22.8241C69.9716 23.2777 69.7912 23.7127 69.4703 24.0334C69.1494 24.3541 68.714 24.5343 68.2602 24.5343C67.8063 24.5343 67.3712 24.3541 67.0502 24.0334C66.7293 23.7127 66.549 23.2777 66.549 22.8241C66.5447 21.544 66.4189 20.2671 66.1733 19.0106C65.9308 17.7669 65.5628 16.551 65.075 15.3813C64.5863 14.2099 63.986 13.0882 63.2823 12.0317C61.8535 9.91309 60.0283 8.09036 57.9074 6.66383C56.8555 5.96812 55.7391 5.37525 54.5735 4.89342C52.2115 3.927 49.6854 3.42449 47.1332 3.41337C46.6803 3.41337 46.2459 3.23356 45.9256 2.91349C45.6054 2.59343 45.4255 2.15935 45.4255 1.70671C45.4255 1.25407 45.6054 0.81994 45.9256 0.499877C46.2459 0.179814 46.6803 5.05099e-06 47.1332 5.05099e-06C48.6318 -0.000985507 50.1269 0.143722 51.5975 0.432017C53.0644 0.722424 54.4991 1.15649 55.8809 1.72795C57.26 2.30688 58.5795 3.01841 59.8208 3.85246C62.3165 5.52868 64.462 7.67413 66.1379 10.1693C66.9765 11.4061 67.6888 12.724 68.2638 14.1031C69.4192 16.8738 70.0094 19.8472 69.9999 22.8489L69.9716 22.8241ZM44.536 20.3455L44.6353 20.3066C45.3351 20.0143 46.1062 19.9377 46.8499 20.0866C47.5936 20.2355 48.2758 20.6031 48.8089 21.1422C49.1678 21.4952 49.4501 21.9182 49.638 22.3851C49.8344 22.8453 49.9368 23.34 49.9392 23.8403C49.9368 24.3452 49.8344 24.8446 49.638 25.3098L49.5956 25.4089L44.536 20.3455ZM40.6388 40.6274L53.4717 53.4628C53.9848 53.9731 54.3912 54.5801 54.6673 55.2488C54.9435 55.9174 55.0838 56.6343 55.0802 57.3577C55.0845 58.8086 54.5124 60.2019 53.4894 61.2314L53.3902 61.3128C51.034 63.6674 48.6637 66.0221 46.3041 68.3944C45.2826 69.3891 43.9127 69.9458 42.4864 69.9458C41.0602 69.9458 39.6903 69.3891 38.6687 68.3944C38.651 68.3944 38.605 68.3307 38.5943 68.3413L32.7059 62.4529L32.6421 62.3892L32.5854 62.3254L25.7225 55.474C24.7674 56.1822 23.6097 56.5646 22.4204 56.5645C21.7011 56.5678 20.9884 56.4294 20.3227 56.1572C19.657 55.885 19.0515 55.4844 18.5408 54.9783L18.4593 54.8755C17.2901 53.7071 16.1208 52.528 14.9481 51.3595C14.449 50.8554 14.0545 50.2578 13.787 49.601C13.5195 48.9442 13.3842 48.2411 13.3891 47.5319C13.3906 46.3469 13.7762 45.1941 14.4877 44.246L7.62476 37.3875L7.56096 37.3237L7.50431 37.26L1.61214 31.3823C1.61214 31.3646 1.55911 31.315 1.55203 31.3079C0.556926 30.2876 0 28.9192 0 27.4945C0 26.0697 0.556926 24.7013 1.55203 23.681C3.91405 21.3204 6.26774 18.9599 8.61324 16.5994L8.70168 16.5144C9.20919 16.0034 9.81402 15.5992 10.4803 15.3256C11.1467 15.0519 11.8611 14.9143 12.5814 14.921C13.3012 14.9193 14.0141 15.0598 14.6793 15.3345C15.3445 15.6092 15.9489 16.0125 16.4575 16.5214L29.301 29.3463L32.1354 26.5136C31.8109 25.2601 31.648 23.9702 31.6501 22.6754C31.6514 21.0123 31.9143 19.3598 32.4295 17.7785C32.9468 16.2023 33.715 14.7198 34.7042 13.3878C34.7532 13.3155 34.8102 13.249 34.8742 13.1896C35.0329 13.0304 35.2215 12.904 35.4291 12.8178C35.6367 12.7317 35.8593 12.6873 36.0841 12.6873C36.3089 12.6873 36.5317 12.7317 36.7394 12.8178C36.947 12.904 37.1354 13.0304 37.294 13.1896L42.0063 17.8918C43.4041 16.9445 45.0884 16.5136 46.7697 16.6733C48.4509 16.8329 50.0239 17.573 51.2182 18.7663C51.8956 19.4341 52.4299 20.2329 52.7879 21.1139C53.1565 21.993 53.3455 22.9368 53.3441 23.8899C53.3452 24.8446 53.1585 25.7902 52.7948 26.673C52.6067 27.1273 52.3693 27.5595 52.0864 27.9618L56.7913 32.664C56.8554 32.7211 56.9116 32.7867 56.9581 32.8588C57.093 33.0386 57.1909 33.2432 57.2461 33.461C57.3014 33.6788 57.3128 33.9054 57.2799 34.1277C57.2469 34.3499 57.1701 34.5635 57.0541 34.7559C56.938 34.9484 56.7849 35.1159 56.6036 35.2488C55.2696 36.2411 53.7853 37.0133 52.2068 37.5362C50.6253 38.0495 48.9731 38.3123 47.3103 38.3152C46.0082 38.3162 44.7108 38.1556 43.4483 37.8372L40.6139 40.6698L40.6388 40.6274Z" fill="white"/>
</svg>
