<svg width="70" height="70" viewBox="0 0 70 70" fill="none" xmlns="http://www.w3.org/2000/svg">
<path fill-rule="evenodd" clip-rule="evenodd" d="M36.2701 61.1973L41.0144 65.9421L41.039 65.9705C41.4207 66.3364 41.9276 66.5431 42.4563 66.5481C42.7182 66.5533 42.9783 66.5061 43.2217 66.4093C43.465 66.3126 43.6866 66.1682 43.8734 65.9846C46.2189 63.6175 48.5928 61.2788 50.9595 58.9223L51.041 58.8338C51.231 58.642 51.3814 58.4146 51.4835 58.1647C51.5856 57.9149 51.6377 57.6473 51.6364 57.3773C51.6397 57.1074 51.589 56.8395 51.4874 56.5894C51.3858 56.3393 51.2353 56.112 51.0447 55.9209L46.3004 51.1832L36.2772 61.1902L36.2701 61.1973ZM33.5066 29.9927C34.2399 31.3562 35.1671 32.6059 36.2595 33.7028C37.3542 34.7972 38.6058 35.7228 39.9727 36.4491L23.8625 52.5581C23.4762 52.941 22.9537 53.155 22.4098 53.1534C21.8633 53.154 21.3387 52.9388 20.9501 52.5546L20.8614 52.4731C19.6993 51.3037 18.5302 50.1166 17.361 48.9472C17.1771 48.7604 17.0323 48.5389 16.935 48.2955C16.8376 48.0522 16.7898 47.7919 16.7942 47.5298C16.7954 46.9996 17.0037 46.4908 17.375 46.1123L17.3999 46.0876L33.4995 29.9892L33.5066 29.9927ZM35.689 26.3854C35.689 26.4315 35.714 26.4704 35.7282 26.5094C36.3328 28.3031 37.3399 29.9347 38.6724 31.279C40.2766 32.8762 42.2912 33.9986 44.4934 34.5221C46.6957 35.0455 48.9997 34.9496 51.1509 34.245C51.7389 34.0474 52.3129 33.8107 52.8692 33.5363L36.4189 17.0906C36.1365 17.6446 35.8996 18.2205 35.7104 18.8128C35.2989 20.0478 35.0907 21.3416 35.0939 22.6434C35.0943 23.914 35.2939 25.1767 35.6856 26.3854H35.689ZM28.1709 53.1002L38.1941 43.0826L43.8628 48.7523L33.8397 58.77L28.1709 53.1002ZM8.76201 33.6851L18.7783 23.6604L14.0376 18.9227C13.8471 18.7318 13.6205 18.5805 13.3712 18.4778C13.1218 18.375 12.8546 18.3226 12.5849 18.3238C12.314 18.3217 12.0455 18.3736 11.7949 18.4764C11.5443 18.5792 11.3166 18.7309 11.1252 18.9227L11.0331 19.0006C8.68049 21.3606 6.34202 23.7384 3.96819 26.0877C3.60016 26.4693 3.39676 26.9801 3.4014 27.5102C3.40603 28.0404 3.61841 28.5475 3.99305 28.9225L4.01792 28.9544L8.75855 33.6922L8.76201 33.6851ZM21.1981 26.0806L11.1819 36.1054L16.8508 41.775L26.8669 31.7574L21.1981 26.0877V26.0806ZM61.78 22.8418C61.78 23.2953 61.6 23.7302 61.2794 24.0508C60.9588 24.3714 60.5239 24.5516 60.0706 24.5516C59.6172 24.5516 59.1823 24.3714 58.8617 24.0508C58.5411 23.7302 58.3611 23.2953 58.3611 22.8418C58.3568 22.1007 58.2832 21.3616 58.1414 20.6342C58.0015 19.9057 57.7878 19.1933 57.5037 18.508C57.2293 17.8301 56.8825 17.1837 56.4691 16.5803C56.0521 15.9683 55.5774 15.3976 55.0518 14.8759C54.5297 14.3521 53.9605 13.8776 53.3512 13.4585C52.7407 13.0529 52.0929 12.7065 51.4167 12.4238L51.3351 12.3919C50.6789 12.1284 49.9991 11.9279 49.305 11.793C48.5824 11.6423 47.8464 11.5652 47.1083 11.5626C46.8777 11.5732 46.6474 11.5369 46.4312 11.4559C46.2151 11.3748 46.0177 11.2508 45.8508 11.0914C45.6839 10.9319 45.551 10.7403 45.4603 10.528C45.3695 10.3157 45.3227 10.0873 45.3227 9.85645C45.3227 9.6256 45.3695 9.39715 45.4603 9.18489C45.551 8.97264 45.6839 8.78101 45.8508 8.62153C46.0177 8.46206 46.2151 8.33805 46.4312 8.25704C46.6474 8.17604 46.8777 8.13969 47.1083 8.1502C48.0683 8.14541 49.0263 8.23803 49.9676 8.42661C50.8801 8.60255 51.7728 8.86968 52.632 9.22393L52.7276 9.26292C53.6124 9.62686 54.4576 10.0804 55.2501 10.6165C57.6599 12.2292 59.5406 14.5169 60.6568 17.1934C61.0275 18.0843 61.3077 19.0103 61.493 19.9573C61.6779 20.8992 61.7694 21.8571 61.766 22.817L61.78 22.8418ZM69.9716 22.8418C69.9716 23.2958 69.7912 23.7311 69.4703 24.052C69.1494 24.373 68.714 24.5533 68.2602 24.5533C67.8063 24.5533 67.3712 24.373 67.0502 24.052C66.7293 23.7311 66.549 23.2958 66.549 22.8418C66.5447 21.5607 66.4188 20.2828 66.1733 19.0254C65.9308 17.7807 65.5628 16.5638 65.075 15.3933C64.5863 14.2209 63.986 13.0984 63.2823 12.0411C61.8535 9.92078 60.0283 8.09663 57.9074 6.669C56.8555 5.97274 55.7391 5.37941 54.5735 4.89722C52.2115 3.93004 49.6854 3.42714 47.1332 3.41601C46.6803 3.41601 46.2459 3.23606 45.9256 2.91575C45.6054 2.59544 45.4255 2.16102 45.4255 1.70804C45.4255 1.25505 45.6054 0.820576 45.9256 0.500265C46.2459 0.179953 46.6803 5.0549e-06 47.1332 5.0549e-06C48.6318 -0.000986271 50.1269 0.143833 51.5975 0.432352C53.0644 0.722984 54.4991 1.15739 55.8809 1.72929C57.26 2.30867 58.5795 3.02075 59.8208 3.85544C62.3165 5.53296 64.462 7.68007 66.1379 10.1771C66.9765 11.4149 67.6888 12.7338 68.2638 14.114C69.4192 16.8869 70.0094 19.8626 69.9999 22.8666L69.9716 22.8418ZM44.536 20.3613L44.6353 20.3223C45.3351 20.0298 46.1062 19.9532 46.8499 20.1022C47.5936 20.2512 48.2758 20.6191 48.8089 21.1586C49.1678 21.5118 49.45 21.9352 49.638 22.4024C49.8344 22.863 49.9368 23.3581 49.9392 23.8588C49.9368 24.3641 49.8344 24.8639 49.638 25.3294L49.5956 25.4286L44.536 20.3613ZM40.6388 40.6588L53.4717 53.5042C53.9848 54.0149 54.3912 54.6224 54.6673 55.2916C54.9435 55.9608 55.0838 56.6782 55.0802 57.4021C55.0845 58.8541 54.5124 60.2485 53.4894 61.2788L53.3902 61.3603C51.034 63.7168 48.6637 66.0732 46.3041 68.4474C45.2826 69.4429 43.9127 70 42.4864 70C41.0602 70 39.6903 69.4429 38.6687 68.4474C38.651 68.4474 38.605 68.3836 38.5943 68.3943L32.7059 62.5013L32.6421 62.4375L32.5854 62.3737L25.7225 55.517C24.7674 56.2257 23.6096 56.6084 22.4204 56.6084C21.7011 56.6117 20.9884 56.4731 20.3227 56.2007C19.657 55.9283 19.0515 55.5274 18.5408 55.0209L18.4593 54.9181C17.2901 53.7487 16.1208 52.5687 14.9481 51.3993C14.449 50.8948 14.0545 50.2968 13.787 49.6395C13.5195 48.9821 13.3842 48.2785 13.3891 47.5688C13.3906 46.3828 13.7762 45.2291 14.4877 44.2803L7.62476 37.4165L7.56096 37.3527L7.5043 37.2889L1.61214 31.4066C1.61214 31.3889 1.55911 31.3393 1.55203 31.3322C0.556926 30.3111 0 28.9417 0 27.5158C0 26.0899 0.556926 24.7204 1.55203 23.6993C3.91405 21.337 6.26774 18.9746 8.61323 16.6122L8.70168 16.5272C9.20918 16.0158 9.81402 15.6113 10.4803 15.3375C11.1467 15.0636 11.8611 14.9259 12.5814 14.9326C13.3012 14.9309 14.0141 15.0715 14.6793 15.3464C15.3445 15.6213 15.9489 16.0249 16.4575 16.5343L29.301 29.3691L32.1354 26.5342C31.8109 25.2796 31.648 23.9888 31.6501 22.693C31.6514 21.0286 31.9143 19.3748 32.4295 17.7923C32.9468 16.2149 33.715 14.7312 34.7042 13.3982C34.7532 13.3259 34.8102 13.2593 34.8742 13.1998C35.0329 13.0405 35.2215 12.914 35.4291 12.8278C35.6367 12.7415 35.8593 12.6971 36.0841 12.6971C36.3089 12.6971 36.5317 12.7415 36.7393 12.8278C36.947 12.914 37.1354 13.0405 37.294 13.1998L42.0063 17.9056C43.4041 16.9577 45.0884 16.5264 46.7697 16.6862C48.4509 16.8459 50.0239 17.5866 51.2181 18.7809C51.8956 19.4491 52.4299 20.2486 52.7879 21.1303C53.1565 22.01 53.3455 22.9546 53.3441 23.9084C53.3452 24.8639 53.1585 25.8102 52.7948 26.6937C52.6067 27.1483 52.3693 27.5809 52.0864 27.9835L56.7913 32.6894C56.8554 32.7465 56.9116 32.8121 56.9581 32.8843C57.093 33.0642 57.1909 33.269 57.2461 33.4869C57.3014 33.7049 57.3128 33.9317 57.2799 34.1541C57.2469 34.3766 57.1701 34.5903 57.0541 34.7829C56.938 34.9754 56.7849 35.1431 56.6036 35.2761C55.2696 36.2692 53.7853 37.042 52.2068 37.5653C50.6253 38.079 48.9731 38.342 47.3103 38.3449C46.0082 38.3459 44.7108 38.1852 43.4483 37.8665L40.6139 40.7013L40.6388 40.6588Z" fill="#2C9E56"/>
</svg>
