<svg width="70" height="64" viewBox="0 0 70 64" fill="none" xmlns="http://www.w3.org/2000/svg">
<path fill-rule="evenodd" clip-rule="evenodd" d="M51.1536 59.7778V56.6869H18.8353V59.7778H51.1536ZM34.9998 8.40393C35.3323 8.40729 35.6619 8.3423 35.9683 8.21312C36.268 8.08621 36.5405 7.90275 36.7706 7.67269C37.0092 7.44121 37.1981 7.16349 37.3257 6.85661C37.5707 6.23456 37.5707 5.54291 37.3257 4.92086C37.1998 4.61586 37.0134 4.33944 36.7778 4.10834C36.5482 3.87843 36.2756 3.69594 35.9754 3.57136C35.6683 3.44435 35.3392 3.37839 35.0068 3.3771C34.3386 3.38121 33.6978 3.6432 33.2183 4.10834C32.7516 4.57813 32.4888 5.21264 32.4866 5.87461C32.4818 6.20818 32.5468 6.53905 32.6774 6.84605C32.8012 7.15206 32.9855 7.43001 33.2194 7.6631C33.4532 7.89619 33.7318 8.07965 34.0383 8.20255C34.3441 8.33373 34.6741 8.39869 35.0068 8.39326L34.9998 8.40393ZM45.9576 27.5998H63.4652L54.7096 10.8661L45.9576 27.5998ZM43.3136 31.0299C43.711 32.8939 44.5565 34.633 45.7771 36.0972C46.9978 37.5614 48.5568 38.7066 50.3194 39.4339C51.0284 39.7286 51.7649 39.9523 52.5181 40.1015C54.0438 40.3983 55.6124 40.3983 57.1381 40.1015C57.8925 39.9528 58.6302 39.7291 59.3402 39.4339C61.3887 38.5857 63.1565 37.1778 64.4408 35.3714C65.362 34.066 66.0134 32.59 66.3568 31.0299H43.3136ZM24.7631 35.3714C25.686 34.0678 26.3352 32.591 26.6718 31.0299H3.61805C4.01902 32.8934 4.86678 34.6317 6.08833 36.0956C7.30989 37.5594 8.86874 38.705 10.6311 39.4339C11.3402 39.7282 12.0766 39.9518 12.8297 40.1015C14.3566 40.3983 15.9263 40.3983 17.4531 40.1015C20.4015 39.5145 23.0133 37.8221 24.7525 35.3714H24.7631ZM6.52716 27.5998H24.0243L15.2722 10.8661L6.52716 27.5998ZM54.5753 61.4876C54.5753 61.712 54.5311 61.9341 54.445 62.1414C54.359 62.3486 54.233 62.5368 54.0741 62.6953C53.9151 62.8537 53.7265 62.9794 53.5189 63.0649C53.3114 63.1505 53.089 63.1942 52.8645 63.1937H17.1245C16.8998 63.1942 16.6772 63.1505 16.4695 63.065C16.2617 62.9795 16.0729 62.8539 15.9137 62.6955C15.7545 62.537 15.628 62.3488 15.5416 62.1416C15.4552 61.9343 15.4105 61.7122 15.41 61.4876V54.9771C15.41 54.5227 15.5907 54.0869 15.9122 53.7656C16.2337 53.4443 16.6698 53.2638 17.1245 53.2638H33.3102V11.5797C33.1087 11.5231 32.9284 11.4525 32.7446 11.3818C32.0233 11.073 31.3653 10.6334 30.804 10.0854C30.2549 9.53333 29.8212 8.87773 29.528 8.15663C29.4494 7.9765 29.3832 7.79115 29.33 7.60197H17.7713C17.71 7.69868 17.6402 7.7898 17.5627 7.87407L27.8984 27.6175H28.6478C28.8725 27.6179 29.0948 27.6626 29.3022 27.749C29.5096 27.8353 29.698 27.9616 29.8566 28.1207C30.0151 28.2798 30.1407 28.4686 30.2262 28.6762C30.3118 28.8838 30.3556 29.1062 30.3551 29.3307C30.3585 29.4053 30.3526 29.4802 30.3374 29.5533C30.1569 32.3884 29.1843 35.116 27.5304 37.4264C25.8765 39.7368 23.6074 41.5374 20.9809 42.6237C20.0696 43.005 19.1221 43.2938 18.153 43.4857C16.1931 43.8672 14.1781 43.8672 12.2182 43.4857C11.2408 43.2947 10.2851 43.0059 9.36561 42.6237C6.72435 41.5246 4.44568 39.7051 2.78991 37.3733C1.13415 35.0414 0.168116 32.2912 0.00205473 29.4367C-0.0201223 28.9832 0.13793 28.5394 0.441851 28.2019C0.745773 27.8644 1.17086 27.6607 1.62446 27.6352H1.70935H2.70254L13.0312 7.88464C12.8212 7.64128 12.6539 7.36421 12.5363 7.0651C12.38 6.70437 12.2993 6.31538 12.2993 5.92226C12.2993 5.52915 12.38 5.14027 12.5363 4.77953C12.6817 4.41187 12.9006 4.07766 13.1797 3.79743C13.4608 3.52029 13.7934 3.30076 14.1588 3.15103L14.2754 3.10511C14.6032 2.98173 14.9503 2.9171 15.3005 2.91429C15.6964 2.91745 16.0878 2.9979 16.4528 3.15103C16.819 3.29725 17.1511 3.51726 17.4284 3.79743L17.5486 3.93876C17.6277 4.02778 17.702 4.12097 17.7713 4.21787H29.33C29.3838 4.02541 29.4499 3.83661 29.528 3.65265C29.8259 2.93905 30.2578 2.28914 30.8004 1.73803C31.9164 0.626191 33.4275 0.00127201 35.0033 0C35.7794 0.004259 36.5475 0.157741 37.2656 0.452134C37.9893 0.745914 38.6458 1.1834 39.1955 1.73803C39.7452 2.28761 40.1801 2.94073 40.4751 3.65965C40.5578 3.84179 40.6241 4.03095 40.673 4.22488H52.2318C52.2999 4.12715 52.3743 4.034 52.4545 3.94588L52.5817 3.80454C52.8603 3.5259 53.1921 3.30602 53.5574 3.15804C54.2418 2.85867 55.0169 2.84216 55.7135 3.11211L55.8514 3.15804C56.2113 3.31212 56.5397 3.53133 56.82 3.80454C57.1011 4.08444 57.3224 4.41851 57.4703 4.78654C57.6221 5.14845 57.7002 5.53698 57.7002 5.92938C57.7002 6.32178 57.6221 6.71021 57.4703 7.07211C57.3529 7.37206 57.1843 7.64933 56.9719 7.89165L67.297 27.6422H68.2903H68.3856C68.838 27.6686 69.2616 27.873 69.5636 28.2106C69.8656 28.5482 70.0217 28.9916 69.9976 29.4438C69.8315 32.2983 68.8654 35.0485 67.2096 37.3804C65.5538 39.7122 63.2752 41.5317 60.6339 42.6308C59.7223 43.0114 58.7751 43.3002 57.8061 43.4927C55.8474 43.8742 53.8334 43.8742 51.8748 43.4927C50.8975 43.3013 49.9418 43.0126 49.0222 42.6308C46.3993 41.54 44.134 39.738 42.4819 37.4284C40.8297 35.1187 39.8568 32.3935 39.6727 29.5603C39.6689 29.4862 39.6689 29.412 39.6727 29.3378C39.6723 29.1133 39.7161 28.8908 39.8017 28.6832C39.8872 28.4756 40.0128 28.2869 40.1713 28.1278C40.3299 27.9687 40.5182 27.8424 40.7256 27.756C40.933 27.6696 41.1554 27.6249 41.38 27.6245H42.1259L52.4509 7.88108C52.3802 7.79397 52.3141 7.70318 52.253 7.60909H40.6943C40.6427 7.79877 40.5765 7.98424 40.4963 8.16374C40.2007 8.8861 39.7631 9.54189 39.2096 10.0925C38.6576 10.6469 38.0019 11.0875 37.2797 11.3889C37.0959 11.4596 36.9262 11.5302 36.7177 11.5868V53.2708H52.8857C53.1107 53.2708 53.3335 53.3153 53.5413 53.4014C53.7491 53.4875 53.9378 53.6138 54.0967 53.7729C54.2556 53.932 54.3816 54.1209 54.4674 54.3287C54.5531 54.5366 54.597 54.7594 54.5965 54.9842L54.5753 61.4876Z" fill="white"/>
</svg>
