<svg width="56" height="70" viewBox="0 0 56 70" fill="none" xmlns="http://www.w3.org/2000/svg">
<path fill-rule="evenodd" clip-rule="evenodd" d="M31.0315 16.7143V23.6194C31.0295 23.8383 31.0717 24.0554 31.1555 24.2576C31.2394 24.4599 31.3631 24.6431 31.5195 24.7965C31.8347 25.1085 32.2612 25.2825 32.7049 25.2805H39.6068L31.0315 16.7143ZM49.6241 14.6535L41.0379 6.06894V12.9739C41.0441 13.42 41.2261 13.8456 41.5443 14.1584C41.7007 14.3135 41.8863 14.4361 42.0903 14.5192C42.2944 14.6023 42.5128 14.6441 42.7331 14.6424L49.6241 14.6535ZM42.1129 28.8522C42.1129 40.8311 42.1129 52.8102 42.1129 64.7892C42.1126 65.2335 41.9359 65.6595 41.6213 65.9736C41.466 66.1299 41.2814 66.254 41.078 66.339C40.8747 66.4239 40.6566 66.4681 40.4362 66.4687H5.23617C4.79127 66.468 4.36427 66.2927 4.04717 65.9809C3.88989 65.8248 3.76513 65.6392 3.6801 65.4346C3.59508 65.2301 3.55166 65.0107 3.552 64.7892V15.8746C3.552 15.4275 3.72907 14.9986 4.04471 14.6818C4.36035 14.365 4.78881 14.186 5.23617 14.184H27.4907V23.612C27.4956 24.9863 28.0412 26.3035 29.0098 27.2791L29.0317 27.3011C30.0103 28.2844 31.3392 28.8395 32.7268 28.8449L42.1129 28.8522ZM13.7087 10.6564H13.5508V5.23287C13.5556 4.78892 13.7341 4.36449 14.0483 4.05055C14.3624 3.73661 14.7872 3.55811 15.2314 3.55334H37.4933V12.9739C37.4939 14.3602 38.0424 15.6902 39.0196 16.674C39.5045 17.1622 40.0813 17.5497 40.7168 17.814C41.3522 18.0784 42.0338 18.2144 42.7221 18.2142H52.1192V54.1511C52.1183 54.3714 52.0734 54.5894 51.987 54.7922C51.9007 54.995 51.7749 55.1784 51.6166 55.3318L51.5577 55.3979C51.2543 55.6685 50.8636 55.8208 50.457 55.8269H45.6649V27.224C45.6686 27.1715 45.6686 27.1188 45.6649 27.0663C45.6642 26.8105 45.6089 26.5579 45.5025 26.3251C45.3962 26.0924 45.2413 25.885 45.0484 25.7169L30.6169 11.2871C30.4498 11.0874 30.2411 10.9264 30.0053 10.8156C29.7695 10.7047 29.5124 10.6466 29.2519 10.6453H29.0942L13.7087 10.6564ZM5.21422 10.6564H9.98431V5.23287C9.98431 3.84503 10.536 2.51406 11.518 1.53271C12.4999 0.551359 13.8317 4.19636e-06 15.2205 4.19636e-06H39.2581C39.5179 -0.00055895 39.7746 0.0555644 40.0104 0.16451C40.2462 0.273456 40.4553 0.432584 40.6232 0.630723L55.0546 15.0642C55.2464 15.2335 55.4009 15.4409 55.5077 15.6733C55.6145 15.9057 55.6713 16.1579 55.6747 16.4136C55.6804 16.466 55.6804 16.5189 55.6747 16.5713V54.1364C55.6761 54.8227 55.5414 55.5025 55.2781 56.1363C55.0148 56.7702 54.6284 57.3455 54.1411 57.8291L54.0347 57.9391C53.0636 58.8511 51.7824 59.3609 50.4498 59.3656H45.6575V64.7782C45.6586 65.4639 45.5237 66.143 45.2604 66.7762C44.9972 67.4094 44.6109 67.9842 44.1239 68.4672C43.6397 68.9538 43.0638 69.3398 42.4296 69.6029C41.7954 69.866 41.1154 70.001 40.4288 70H5.22878C4.54175 70.0024 3.86116 69.869 3.22592 69.6075C2.59068 69.346 2.01339 68.9615 1.52742 68.4762C1.04144 67.9909 0.656318 67.4142 0.394188 66.7796C0.132057 66.1449 -0.0019188 65.4648 2.07615e-05 64.7782V15.8746C-0.000463496 15.1876 0.134711 14.5073 0.397771 13.8726C0.66083 13.2379 1.0466 12.6614 1.53302 12.1759C2.01943 11.6905 2.59696 11.3057 3.23241 11.0437C3.86787 10.7817 4.54876 10.6476 5.23617 10.649L5.21422 10.6564Z" fill="white"/>
</svg>
