<svg width="70" height="61" viewBox="0 0 70 61" fill="none" xmlns="http://www.w3.org/2000/svg">
<path fill-rule="evenodd" clip-rule="evenodd" d="M41.6667 19.4979C40.7917 18.6213 39.7517 17.9263 38.6067 17.4532C37.4617 16.98 36.2342 16.738 34.9951 16.7411C32.7694 16.7441 30.6161 17.5318 28.9144 18.9655C27.2128 20.3993 26.072 22.387 25.6928 24.5788H44.317C43.9872 22.6554 43.0708 20.8808 41.693 19.4979H41.6667ZM34.9951 13.5581C35.6756 13.5581 36.3494 13.4241 36.9781 13.1637C37.6067 12.9033 38.178 12.5216 38.659 12.0405C39.3856 11.3156 39.8807 10.3915 40.0814 9.38527C40.282 8.37904 40.1794 7.33591 39.7863 6.38806C39.3932 5.44022 38.7275 4.63037 37.8734 4.061C37.0193 3.49163 36.0152 3.1884 34.9885 3.18978C33.6136 3.18978 32.2951 3.73564 31.3228 4.70724C30.3506 5.67885 29.8043 6.99664 29.8043 8.3707C29.8043 9.74476 30.3506 11.0625 31.3228 12.0342C32.2951 13.0058 33.6136 13.5516 34.9885 13.5516L34.9951 13.5581ZM14.0322 54.3399C12.8498 53.1523 11.2444 52.4815 9.56795 52.4747H9.50889C7.86491 52.4784 6.28671 53.1201 5.1071 54.2645L5.04143 54.3399C4.23302 55.138 3.65706 56.1409 3.37517 57.241H15.6985C15.4258 56.1729 14.8773 55.1951 14.1077 54.4054L14.0322 54.3399ZM11.8574 43.6733C11.5521 43.3681 11.1896 43.1261 10.7906 42.9613C10.3915 42.7965 9.96373 42.712 9.53191 42.7128C8.68856 42.7116 7.87619 43.0302 7.25884 43.6044L7.20639 43.6733C6.73898 44.1287 6.4182 44.7131 6.28507 45.3518C6.15195 45.9905 6.21248 46.6544 6.45905 47.2585C6.70562 47.8626 7.1269 48.3793 7.66905 48.7427C8.21121 49.1061 8.84968 49.2996 9.50248 49.2984H9.58436C10.4472 49.2937 11.2731 48.9471 11.8805 48.3346C12.497 47.7154 12.843 46.8774 12.843 46.0039C12.843 45.1304 12.497 44.2925 11.8805 43.6733H11.8574ZM9.53191 39.5331C10.8041 39.5327 12.0483 39.9068 13.1091 40.6088C14.1698 41.3108 15.0001 42.3095 15.4963 43.4803C15.9924 44.6511 16.1326 45.9419 15.8991 47.1918C15.6655 48.4416 15.0687 49.595 14.1831 50.5079C14.9527 50.9363 15.659 51.4691 16.2822 52.0912L16.3675 52.1797C18.1034 53.959 19.0745 56.3458 19.0736 58.8308C19.0736 59.2527 18.9062 59.6574 18.608 59.9561C18.3097 60.2548 17.9051 60.423 17.4828 60.4239H1.59079C1.16858 60.423 0.764118 60.2548 0.465872 59.9561C0.167627 59.6574 7.18531e-06 59.2527 8.07909e-06 58.8308C-0.00162427 57.5791 0.244116 56.3394 0.723129 55.1828C1.20214 54.0263 1.90504 52.9756 2.79139 52.0912L2.88328 52.0093C3.48461 51.4255 4.15798 50.921 4.88728 50.5079C3.70271 49.2898 3.04558 47.6546 3.05786 45.956C3.07013 44.2574 3.75089 42.632 4.95295 41.4311L5.05465 41.336C6.25932 40.1816 7.86293 39.5359 9.53191 39.5331ZM39.4922 54.3399C38.9066 53.751 38.2107 53.2831 37.4441 52.9631C36.6776 52.6431 35.8555 52.4771 35.0247 52.4747H34.9657C33.3229 52.4796 31.7461 53.1212 30.5671 54.2645L30.508 54.3399C29.7007 55.1388 29.1249 56.1413 28.8418 57.241H41.1648C40.8886 56.1722 40.3368 55.1944 39.5643 54.4054L39.4922 54.3399ZM37.324 43.6733C37.0183 43.3677 36.6552 43.1255 36.2556 42.9607C35.8559 42.7959 35.4275 42.7116 34.9951 42.7128C34.1531 42.7134 33.3423 43.0319 32.7252 43.6044L32.6662 43.6733C32.0489 44.292 31.7022 45.1302 31.7022 46.0039C31.7022 46.8777 32.0489 47.7158 32.6662 48.3346C33.275 48.945 34.0999 49.2912 34.9623 49.2984H35.051C35.9133 49.2912 36.738 48.945 37.3468 48.3346C37.6553 48.0297 37.9002 47.6668 38.0674 47.2667C38.2345 46.8666 38.3204 46.4375 38.3204 46.0039C38.3204 45.5704 38.2345 45.1412 38.0674 44.7412C37.9002 44.3411 37.6553 43.9781 37.3468 43.6733H37.324ZM34.9951 39.5331C36.2667 39.5342 37.5099 39.9093 38.5697 40.6115C39.6294 41.3138 40.4589 42.3122 40.9548 43.4823C41.4507 44.6524 41.5911 45.9426 41.3584 47.1919C41.1258 48.4412 40.5303 49.5944 39.6463 50.5079C40.4152 50.9388 41.1224 51.4714 41.7488 52.0912L41.8275 52.1797C43.5684 53.9564 44.5434 56.3441 44.5434 58.8308C44.5425 59.253 44.3743 59.6577 44.0756 59.9563C43.7768 60.2549 43.3717 60.423 42.9492 60.4239H27.0508C26.6283 60.423 26.2232 60.2549 25.9245 59.9563C25.6257 59.6577 25.4575 59.253 25.4566 58.8308C25.4588 56.3031 26.464 53.8795 28.2514 52.0912L28.3465 52.0093C28.9483 51.4248 29.623 50.9201 30.3539 50.5079C29.1685 49.2902 28.5108 47.6548 28.523 45.956C28.5353 44.2572 29.2165 42.6316 30.4193 41.4311L30.5244 41.336C31.7254 40.18 33.3277 39.5339 34.9951 39.5331ZM64.9586 54.3399C63.7731 53.1508 62.1641 52.48 60.4845 52.4747H60.4321C58.7907 52.4772 57.2151 53.1193 56.0401 54.2645L55.9678 54.3399C55.1596 55.1387 54.5828 56.1412 54.2983 57.241H66.6216C66.3475 56.1735 65.799 55.196 65.0306 54.4054L64.9554 54.3399H64.9586ZM62.7904 43.6733C62.1818 43.0717 61.364 42.7286 60.5081 42.7158C59.6523 42.703 58.8246 43.0214 58.1982 43.6044L58.1394 43.6733C57.672 44.1287 57.3512 44.7131 57.218 45.3518C57.0849 45.9905 57.1455 46.6544 57.392 47.2585C57.6386 47.8626 58.0599 48.3793 58.602 48.7427C59.1442 49.1061 59.7825 49.2996 60.4353 49.2984H60.5141C61.3765 49.2912 62.2012 48.945 62.81 48.3346C63.421 47.7125 63.7634 46.8756 63.7634 46.0039C63.7634 45.1322 63.421 44.2954 62.81 43.6733H62.7904ZM60.4551 39.5331C61.7273 39.5327 62.9715 39.9068 64.0322 40.6088C65.093 41.3108 65.9232 42.3095 66.4194 43.4803C66.9156 44.6511 67.0556 45.9419 66.822 47.1918C66.5885 48.4416 65.9917 49.595 65.1061 50.5079C65.8767 50.9346 66.5834 51.4676 67.2054 52.0912L67.2939 52.1797C69.0312 53.958 70.0026 56.3455 70 58.8308C69.9991 59.253 69.8309 59.6577 69.5321 59.9563C69.2334 60.2549 68.8283 60.423 68.4058 60.4239H52.5172C52.0949 60.423 51.6905 60.2548 51.3922 59.9561C51.094 59.6574 50.9264 59.2527 50.9264 58.8308C50.9247 57.5791 51.1705 56.3394 51.6495 55.1828C52.1285 54.0263 52.8314 52.9756 53.7178 52.0912L53.8062 52.0093C54.4101 51.4271 55.0844 50.9227 55.8136 50.5079C54.6294 49.2898 53.9722 47.655 53.9838 45.9567C53.9955 44.2584 54.6753 42.6329 55.8761 41.4311L55.981 41.336C57.1839 40.181 58.7869 39.5351 60.4551 39.5331ZM11.6442 36.6747C11.6442 37.0955 11.4771 37.4991 11.1794 37.7966C10.8816 38.0941 10.4779 38.2613 10.0568 38.2613C9.63579 38.2613 9.23184 38.0941 8.93411 37.7966C8.63639 37.4991 8.46925 37.0955 8.46925 36.6747V33.4917C8.46968 33.2833 8.51119 33.0772 8.59137 32.8849C8.67155 32.6925 8.78879 32.5179 8.93652 32.3709C9.08424 32.2239 9.25946 32.1073 9.45223 32.028C9.64501 31.9486 9.85156 31.908 10.06 31.9084H33.4043V30.3088C33.4229 29.8992 33.5988 29.5126 33.8954 29.2293C34.192 28.946 34.5864 28.788 34.9967 28.788C35.407 28.788 35.8016 28.946 36.0982 29.2293C36.3948 29.5126 36.5707 29.8992 36.5893 30.3088V31.9084H59.9336C60.142 31.908 60.3484 31.9486 60.5412 32.028C60.7339 32.1073 60.9094 32.2239 61.0571 32.3709C61.2048 32.5179 61.322 32.6925 61.4022 32.8849C61.4824 33.0772 61.5239 33.2833 61.5243 33.4917V36.6747C61.5243 37.0959 61.3569 37.4998 61.0589 37.7977C60.7608 38.0955 60.3566 38.2629 59.9352 38.2629C59.5137 38.2629 59.1095 38.0955 58.8114 37.7977C58.5134 37.4998 58.346 37.0959 58.346 36.6747V35.0816H36.5893V36.6747C36.5707 37.0843 36.3948 37.4709 36.0982 37.7542C35.8016 38.0374 35.407 38.1955 34.9967 38.1955C34.5864 38.1955 34.192 38.0374 33.8954 37.7542C33.5988 37.4709 33.4229 37.0843 33.4043 36.6747V35.0816H11.6442V36.6747ZM40.3843 14.7678C41.6955 15.3897 42.892 16.2286 43.9234 17.2492C45.0968 18.42 46.0273 19.8109 46.6611 21.3422C47.295 22.8735 47.6198 24.5148 47.6169 26.1719C47.616 26.3802 47.5741 26.5865 47.4936 26.7786C47.413 26.9708 47.2952 27.1452 47.1472 27.2919C46.9992 27.4386 46.8236 27.5548 46.6307 27.6337C46.4378 27.7127 46.2312 27.7528 46.0227 27.752H23.9807C23.7722 27.7528 23.5655 27.7127 23.3725 27.6337C23.1796 27.5548 23.0042 27.4386 22.8562 27.2919C22.7082 27.1452 22.5904 26.9708 22.5098 26.7786C22.4293 26.5865 22.3874 26.3802 22.3865 26.1719C22.3848 24.5153 22.7099 22.8746 23.3431 21.3436C23.9762 19.8126 24.9051 18.4212 26.0766 17.2492C27.1047 16.2308 28.298 15.394 29.6059 14.7743C29.4255 14.6136 29.2451 14.4465 29.0778 14.2859C27.9057 13.1165 27.1071 11.6259 26.7829 10.0028C26.4588 8.37967 26.6238 6.69694 27.257 5.16751C27.8901 3.63809 28.963 2.33066 30.3399 1.41082C31.7167 0.490981 33.3357 0 34.9919 0C36.6481 0 38.2671 0.490981 39.6439 1.41082C41.0208 2.33066 42.0937 3.63809 42.7268 5.16751C43.3599 6.69694 43.5248 8.37967 43.2007 10.0028C42.8765 11.6259 42.0779 13.1165 40.9058 14.2859C40.7385 14.4563 40.5778 14.6137 40.3843 14.7678Z" fill="white"/>
</svg>
