<svg width="191" height="86" viewBox="0 0 191 86" fill="none" xmlns="http://www.w3.org/2000/svg">
<path fill-rule="evenodd" clip-rule="evenodd" d="M84.306 36.009H76.4429V38.1117H81.9655C81.5274 40.3584 79.6833 42.0077 76.6259 42.0077C75.8455 42.0277 75.069 41.8917 74.3415 41.6078C73.614 41.3238 72.95 40.8975 72.3882 40.3536C71.8264 39.8098 71.3779 39.1592 71.069 38.4398C70.76 37.7204 70.5967 36.9466 70.5885 36.1632C70.5803 35.3799 70.7274 34.6028 71.0212 33.877C71.3151 33.1513 71.7498 32.4914 72.3001 31.9359C72.8504 31.3803 73.5054 30.9401 74.2268 30.6408C74.9482 30.3416 75.7217 30.1893 76.5023 30.1929C77.4835 30.183 78.4503 30.4304 79.307 30.9106C80.1638 31.3908 80.8808 32.0871 81.387 32.9307H84.0569C83.4894 31.5465 82.5566 30.3439 81.3587 29.4521C80.1608 28.5604 78.7433 28.0134 77.2587 27.8701C75.7741 27.7267 74.2786 27.9923 72.9333 28.6385C71.588 29.2846 70.4437 30.2867 69.6236 31.5369C68.8036 32.7871 68.3389 34.2381 68.2794 35.7337C68.22 37.2293 68.5681 38.7128 69.2863 40.0246C70.0045 41.3363 71.0656 42.4267 72.3554 43.1783C73.6452 43.9299 75.1148 44.3143 76.6061 44.2901C81.2802 44.2901 84.311 41.1781 84.311 37.0222V36.009H84.306ZM191 48.7298L130.708 86L154.945 48.7298L123.256 0L191 48.7298ZM164.697 59.8737L167.203 34.2029L148.894 21.0376L164.194 59.1067L164.693 59.8747L164.697 59.8737ZM169.17 35.618L166.663 61.3077L187.219 48.6057L169.17 35.623V35.618ZM158.278 50.0069L145.72 18.7532L131.127 8.25626L158.274 50.0029L158.278 50.0069ZM158.156 53.6676L150.916 71.0455L164.142 62.8706L158.156 53.6676ZM147.848 72.9369L156.766 51.5321L156.195 50.6549L137.576 79.2878L147.848 72.9369ZM83.5516 51.3565C83.9383 51.3562 84.3091 51.2019 84.5826 50.9275C84.8561 50.6531 85.0098 50.2809 85.0101 49.8928C85.0152 49.6957 84.9809 49.4996 84.9093 49.3161C84.8376 49.1325 84.7301 48.9652 84.593 48.824C84.4559 48.6828 84.2921 48.5706 84.1111 48.494C83.9301 48.4174 83.7356 48.3779 83.5392 48.3779C83.3428 48.3779 83.1483 48.4174 82.9673 48.494C82.7863 48.5706 82.6225 48.6828 82.4854 48.824C82.3483 48.9652 82.2408 49.1325 82.1692 49.3161C82.0975 49.4996 82.0632 49.6957 82.0683 49.8928C82.0691 50.0869 82.1082 50.2789 82.1833 50.4577C82.2584 50.6366 82.3681 50.7988 82.506 50.9349C82.6439 51.0709 82.8073 51.1783 82.9867 51.2506C83.1662 51.323 83.3582 51.359 83.5516 51.3565ZM44.9806 49.9672H42.642V65.921H51.6848V63.7012H44.9806V49.9692V49.9672ZM58.7667 63.982C57.9053 63.9865 57.0618 63.7343 56.3434 63.2573C55.6249 62.7802 55.0637 62.0999 54.7309 61.3025C54.3981 60.5051 54.3087 59.6264 54.474 58.778C54.6393 57.9295 55.0519 57.1494 55.6594 56.5364C56.267 55.9235 57.0422 55.5054 57.8868 55.3351C58.7314 55.1647 59.6073 55.2499 60.4037 55.5797C61.2 55.9095 61.8809 56.4691 62.3599 57.1876C62.839 57.9061 63.0948 58.7512 63.0948 59.6157C63.107 60.1905 63.0035 60.7619 62.7906 61.2957C62.5777 61.8294 62.2597 62.3146 61.8557 62.7222C61.4516 63.1298 60.9698 63.4515 60.4391 63.6679C59.9083 63.8844 59.3395 63.9912 58.7667 63.982ZM58.7667 66.1264C60.0508 66.127 61.3063 65.7454 62.3743 65.0298C63.4423 64.3143 64.2748 63.2969 64.7665 62.1064C65.2582 60.9159 65.3871 59.6059 65.1368 58.3419C64.8865 57.0779 64.2683 55.9168 63.3603 55.0055C62.4524 54.0942 61.2955 53.4736 60.036 53.2222C58.7766 52.9708 57.4711 53.0999 56.2848 53.5932C55.0984 54.0865 54.0845 54.9219 53.3713 55.9935C52.6581 57.0652 52.2777 58.325 52.2781 59.6137C52.2735 60.4705 52.4382 61.3196 52.7628 62.112C53.0873 62.9044 53.5652 63.6244 54.1688 64.2302C54.7725 64.8361 55.4898 65.3158 56.2793 65.6416C57.0689 65.9674 57.915 66.1329 58.7687 66.1284L58.7667 66.1264ZM73.3835 64.0902C74.2651 64.0878 75.1262 63.8235 75.8582 63.3305C76.5902 62.8376 77.1603 62.1381 77.4967 61.3203C77.833 60.5025 77.9204 59.6031 77.7479 58.7355C77.5754 57.8679 77.1507 57.071 76.5275 56.4454C75.9042 55.8197 75.1102 55.3934 74.2457 55.2201C73.3812 55.0468 72.485 55.1343 71.67 55.4717C70.8551 55.809 70.1579 56.381 69.6666 57.1155C69.1752 57.85 68.9116 58.7142 68.9091 59.5989C68.8977 60.1917 69.0056 60.7808 69.2264 61.3308C69.4472 61.8808 69.7763 62.3805 70.1941 62.7999C70.6119 63.2192 71.1097 63.5496 71.6577 63.7714C72.2057 63.9931 72.7927 64.1015 73.3835 64.0902ZM80.0205 53.3044V66.1949C80.0622 66.9938 79.9345 67.7925 79.646 68.5382C79.3574 69.2839 78.9145 69.9598 78.3465 70.5211C77.7785 71.0824 77.0984 71.5163 76.3509 71.7944C75.6035 72.0724 74.8057 72.1882 74.0104 72.1341C71.1497 72.1341 68.3385 70.8748 67.8797 67.7608H70.0601C70.6138 69.421 72.458 70.0809 73.9778 70.0899C74.4949 70.1184 75.0122 70.0372 75.4959 69.8515C75.9796 69.6659 76.4189 69.38 76.785 69.0124C77.1512 68.6449 77.436 68.204 77.6209 67.7185C77.8057 67.233 77.8865 66.7138 77.8579 66.1949V63.6258C77.3496 64.4143 76.6479 65.0585 75.82 65.4964C74.9921 65.9344 74.0659 66.1513 73.1304 66.1264C71.4283 66.0966 69.806 65.3971 68.6128 64.1786C67.4196 62.9601 66.7511 61.3201 66.7511 59.6117C66.7511 57.9034 67.4196 56.2633 68.6128 55.0448C69.806 53.8264 71.4283 53.1269 73.1304 53.0971C74.0639 53.0676 74.9893 53.28 75.8173 53.7136C76.6453 54.1473 77.3481 54.7876 77.8579 55.5729V53.3044H80.0205ZM82.4589 65.9191H84.6462V53.3064H82.4589V65.921V65.9191ZM91.6253 66.1264C90.7203 66.1411 89.8225 65.9632 88.9911 65.6045C88.2637 65.2951 87.6291 64.8009 87.1499 64.1706C86.7026 63.5751 86.4473 62.8566 86.4182 62.1114H88.91C88.9346 62.392 89.0197 62.6639 89.1593 62.9082C89.299 63.1526 89.4899 63.3635 89.7188 63.5265C90.2578 63.876 90.882 64.0701 91.5234 64.0876C92.1648 64.1051 92.7987 63.9453 93.3557 63.6258C93.5514 63.4977 93.7121 63.3226 93.8231 63.1163C93.9342 62.9101 93.9921 62.6793 93.9916 62.4449C93.9989 62.2105 93.9372 61.9791 93.814 61.7798C93.6909 61.5805 93.5119 61.4221 93.2994 61.3245C92.5983 60.9955 91.8662 60.7375 91.1141 60.5545C90.3337 60.3526 89.5668 60.1014 88.818 59.8023C88.2265 59.554 87.702 59.1687 87.2873 58.678C86.8389 58.1173 86.6103 57.4114 86.6446 56.6933C86.642 56.0404 86.8475 55.4038 87.231 54.8763C87.6594 54.2968 88.2381 53.8465 88.9041 53.5744C89.6935 53.2438 90.5426 53.0813 91.3979 53.0971C92.6303 53.0379 93.8437 53.4194 94.8222 54.1737C95.2534 54.533 95.6015 54.9822 95.8421 55.4901C96.0827 55.9981 96.2101 56.5526 96.2154 57.115H93.8066C93.7937 56.8374 93.7226 56.5657 93.5979 56.3176C93.4731 56.0694 93.2976 55.8505 93.0828 55.6751C92.5746 55.2933 91.9488 55.1026 91.3148 55.1363C90.7326 55.1017 90.1541 55.2498 89.6595 55.56C89.4746 55.6812 89.3232 55.8474 89.2194 56.0431C89.1157 56.2388 89.063 56.4577 89.0662 56.6794C89.0619 56.8498 89.0933 57.0192 89.1584 57.1766C89.2235 57.334 89.3208 57.476 89.444 57.5933C89.7134 57.8477 90.0317 58.0442 90.3794 58.1709C90.7505 58.3131 91.2845 58.4831 91.9813 58.6809C92.7405 58.8762 93.4858 59.1226 94.2121 59.4182C94.7869 59.6624 95.2981 60.0359 95.7062 60.5098C96.1444 61.0499 96.3749 61.7298 96.3558 62.426C96.3645 63.1058 96.1597 63.771 95.7704 64.3273C95.3503 64.9109 94.7778 65.3669 94.1161 65.6452C93.3291 65.9777 92.4811 66.1403 91.6273 66.1225L91.6253 66.1264ZM100.889 55.4241V62.4697C100.863 62.672 100.885 62.8777 100.954 63.0697C101.023 63.2617 101.136 63.4346 101.284 63.5741C101.671 63.8679 102.154 64.0037 102.637 63.9542H104.173V65.922H102.295C101.323 65.9923 100.358 65.706 99.5804 65.1163C99.2599 64.7601 99.0168 64.3408 98.8667 63.8851C98.7165 63.4294 98.6626 62.9474 98.7082 62.4697V55.4241H97.0717V53.3044H98.7003V50.1289H100.888V53.3044H104.168V55.4241H100.889ZM106.148 65.9191H108.334V53.3064H106.148V65.921V65.9191ZM116.784 66.1264C118.078 66.1335 119.341 65.7346 120.398 64.9855C121.455 64.2365 122.252 63.1747 122.678 61.9487H120.253C119.913 62.5718 119.411 63.0902 118.799 63.4485C118.188 63.8067 117.492 63.9911 116.784 63.982C115.629 63.982 114.521 63.5216 113.705 62.702C112.888 61.8824 112.429 60.7708 112.429 59.6117C112.429 58.4527 112.888 57.3411 113.705 56.5215C114.521 55.7019 115.629 55.2415 116.784 55.2415C117.492 55.2326 118.188 55.4171 118.799 55.7753C119.41 56.1335 119.913 56.6519 120.253 57.2748H122.682C122.256 56.0488 121.459 54.987 120.402 54.2379C119.345 53.4889 118.082 53.09 116.788 53.0971C115.066 53.0971 113.415 53.7834 112.198 55.0051C110.98 56.2269 110.296 57.8839 110.296 59.6117C110.296 61.3395 110.98 62.9966 112.198 64.2183C113.415 65.4401 115.066 66.1264 116.788 66.1264H116.784ZM128.853 66.1264C129.707 66.1444 130.555 65.9818 131.341 65.6491C132.004 65.3712 132.576 64.9151 132.997 64.3313C133.386 63.7749 133.591 63.1097 133.582 62.43C133.6 61.7339 133.37 61.0543 132.932 60.5138C132.524 60.0398 132.012 59.6664 131.437 59.4222C130.711 59.1264 129.966 58.88 129.206 58.6849C128.509 58.4864 127.975 58.3164 127.606 58.1748C127.258 58.0484 126.939 57.8518 126.67 57.5973C126.547 57.48 126.449 57.3381 126.384 57.1806C126.319 57.0232 126.287 56.8538 126.291 56.6833C126.288 56.4617 126.341 56.2429 126.445 56.0472C126.549 55.8515 126.7 55.6853 126.885 55.564C127.379 55.2539 127.957 55.1059 128.539 55.1403C129.173 55.1062 129.799 55.2969 130.307 55.6791C130.522 55.8544 130.698 56.0733 130.823 56.3214C130.947 56.5695 131.019 56.8413 131.032 57.119H133.441C133.435 56.5566 133.307 56.0023 133.067 55.4944C132.826 54.9865 132.478 54.5372 132.047 54.1777C131.068 53.4235 129.855 53.042 128.622 53.101C127.767 53.0852 126.918 53.2478 126.129 53.5783C125.463 53.8504 124.885 54.3008 124.456 54.8803C124.072 55.4075 123.867 56.0443 123.87 56.6973C123.836 57.4154 124.064 58.1213 124.513 58.6819C124.927 59.1729 125.452 59.5582 126.043 59.8062C126.792 60.1056 127.559 60.3569 128.339 60.5584C129.091 60.7416 129.823 60.9996 130.525 61.3285C130.737 61.4261 130.916 61.5845 131.039 61.7838C131.162 61.9831 131.224 62.2144 131.217 62.4488C131.217 62.6833 131.159 62.9141 131.048 63.1203C130.937 63.3266 130.777 63.5017 130.581 63.6297C130.024 63.9493 129.39 64.109 128.748 64.0915C128.107 64.074 127.482 63.8799 126.943 63.5305C126.714 63.3674 126.523 63.1564 126.384 62.9121C126.244 62.6678 126.159 62.396 126.134 62.1154H123.643C123.673 62.8604 123.927 63.5787 124.374 64.1745C124.854 64.8046 125.489 65.2987 126.216 65.6085C127.048 65.9673 127.946 66.1452 128.851 66.1304L128.853 66.1264ZM107.241 51.3535C107.628 51.3532 107.999 51.199 108.272 50.9246C108.546 50.6502 108.7 50.278 108.7 49.8898C108.705 49.6927 108.671 49.4967 108.599 49.3131C108.528 49.1295 108.42 48.9622 108.283 48.8211C108.146 48.6799 107.982 48.5676 107.801 48.491C107.62 48.4144 107.426 48.3749 107.229 48.3749C107.033 48.3749 106.839 48.4144 106.658 48.491C106.477 48.5676 106.313 48.6799 106.176 48.8211C106.039 48.9622 105.931 49.1295 105.859 49.3131C105.788 49.4967 105.753 49.6927 105.759 49.8898C105.759 50.0839 105.798 50.2759 105.873 50.4548C105.949 50.6336 106.058 50.7958 106.196 50.9319C106.334 51.0679 106.497 51.1753 106.677 51.2477C106.856 51.32 107.048 51.356 107.242 51.3535H107.241ZM88.7933 33.6542V31.5355H86.607V44.1501H88.7933V37.4638C88.7546 36.9282 88.835 36.3906 89.0285 35.8899C89.222 35.3893 89.5239 34.938 89.9124 34.5686C90.3008 34.1993 90.7662 33.9211 91.2748 33.7542C91.7834 33.5873 92.3226 33.5359 92.8534 33.6036V31.3083C92.0192 31.2384 91.1836 31.4255 90.4582 31.8447C89.7327 32.2638 89.1519 32.8951 88.7933 33.6542ZM95.5865 36.8148C95.7794 35.8715 96.2908 35.024 97.0343 34.4154C97.7778 33.8068 98.7079 33.4745 99.6674 33.4745C100.627 33.4745 101.557 33.8068 102.3 34.4154C103.044 35.024 103.555 35.8715 103.748 36.8148H95.5865ZM99.6545 44.3565C100.931 44.3724 102.185 44.0102 103.257 43.3151C104.33 42.62 105.175 41.623 105.686 40.4487H103.232C102.822 41.0107 102.282 41.4647 101.659 41.7718C101.036 42.0789 100.348 42.23 99.6545 42.2121C98.6683 42.2255 97.7104 41.8806 96.9575 41.2411C96.2047 40.6015 95.7076 39.7104 95.5578 38.732H105.984C106.022 38.4358 106.041 38.1375 106.04 37.8389C106.018 36.5792 105.625 35.3544 104.911 34.3179C104.197 33.2815 103.195 32.4796 102.029 32.0128C100.863 31.546 99.5853 31.435 98.3567 31.6939C97.1281 31.9527 96.003 32.5698 95.1225 33.4678C94.242 34.3658 93.6453 35.5047 93.4072 36.7416C93.1691 37.9786 93.3003 39.2586 93.7842 40.4211C94.2681 41.5835 95.0832 42.5768 96.1274 43.2762C97.1715 43.9756 98.3982 44.35 99.6535 44.3526L99.6545 44.3565ZM109.806 36.8148C109.998 35.871 110.509 35.0229 111.253 34.4138C111.997 33.8047 112.927 33.472 113.887 33.472C114.847 33.472 115.778 33.8047 116.521 34.4138C117.265 35.0229 117.776 35.871 117.969 36.8148H109.806ZM113.874 44.3565C115.151 44.3724 116.404 44.0102 117.477 43.3151C118.55 42.62 119.394 41.623 119.906 40.4487H117.451C117.041 41.0107 116.502 41.4647 115.879 41.7718C115.256 42.0789 114.568 42.23 113.874 42.2121C112.888 42.2255 111.93 41.8806 111.177 41.2411C110.424 40.6015 109.927 39.7104 109.777 38.732H120.204C120.242 38.4357 120.261 38.1375 120.261 37.8389C120.238 36.579 119.845 35.3539 119.132 34.3171C118.418 33.2804 117.415 32.4782 116.249 32.0111C115.083 31.5441 113.805 31.433 112.576 31.6918C111.347 31.9505 110.222 32.5677 109.341 33.4658C108.461 34.3639 107.864 35.5029 107.626 36.7401C107.387 37.9773 107.518 39.2575 108.002 40.4202C108.486 41.5829 109.302 42.5764 110.346 43.2759C111.39 43.9755 112.617 44.35 113.873 44.3526L113.874 44.3565ZM128.516 31.209C127.702 31.1622 126.89 31.3366 126.166 31.7141C125.443 32.0915 124.834 32.6578 124.404 33.3535V31.5375H122.217V44.1521H124.404V37.4657C124.404 34.4887 126.078 33.2979 128.09 33.2979C128.526 33.2587 128.966 33.3146 129.378 33.4618C129.791 33.609 130.167 33.844 130.481 34.1507C130.794 34.4574 131.038 34.8286 131.195 35.2388C131.353 35.6489 131.42 36.0884 131.392 36.527V44.1471H133.579V36.401C133.629 35.7155 133.534 35.0272 133.299 34.3816C133.064 33.736 132.694 33.148 132.216 32.6566C131.737 32.1651 131.159 31.7814 130.522 31.531C129.884 31.2806 129.2 31.1692 128.516 31.2041V31.209ZM59.6636 31.5375L56.8949 41.1503L53.9284 31.5375H51.8212L48.8548 41.1245L46.0861 31.5375H43.8009L47.6978 44.1521H49.9355L52.8773 34.8172L55.819 44.1521H58.0558L61.9527 31.5375H59.6636ZM36.7397 42.2141C35.8782 42.2186 35.0348 41.9664 34.3164 41.4894C33.5979 41.0123 33.0367 40.332 32.7039 39.5346C32.3711 38.7371 32.2817 37.8585 32.447 37.0101C32.6123 36.1616 33.0249 35.3814 33.6324 34.7685C34.24 34.1556 35.0152 33.7375 35.8598 33.5672C36.7044 33.3968 37.5803 33.4819 38.3767 33.8117C39.173 34.1415 39.8538 34.7011 40.3329 35.4196C40.812 36.1382 41.0678 36.9833 41.0678 37.8478C41.08 38.4226 40.9765 38.994 40.7636 39.5277C40.5507 40.0615 40.2327 40.5467 39.8287 40.9543C39.4246 41.3619 38.9428 41.6835 38.4121 41.9C37.8813 42.1165 37.3125 42.2233 36.7397 42.2141ZM36.7397 44.3585C38.0237 44.3587 39.2789 43.9768 40.3466 43.261C41.4143 42.5452 42.2465 41.5278 42.738 40.3373C43.2294 39.1469 43.3581 37.8369 43.1076 36.5731C42.8572 35.3093 42.2389 34.1484 41.331 33.2372C40.423 32.3261 39.2662 31.7056 38.0069 31.4543C36.7476 31.2029 35.4422 31.332 34.256 31.8252C33.0698 32.3184 32.0559 33.1536 31.3427 34.2251C30.6295 35.2966 30.2489 36.5562 30.2491 37.8448C30.2446 38.7014 30.4095 39.5505 30.7341 40.3428C31.0587 41.1351 31.5366 41.8549 32.1402 42.4607C32.7438 43.0664 33.4611 43.546 34.2506 43.8718C35.0401 44.1976 35.8861 44.363 36.7397 44.3585ZM25.7489 33.6562V31.5375H23.5617V44.1521H25.7489V37.4657C25.7102 36.9306 25.7903 36.3936 25.9835 35.8933C26.1766 35.3931 26.4779 34.942 26.8657 34.5728C27.2536 34.2035 27.7182 33.9252 28.2261 33.758C28.7341 33.5907 29.2727 33.5387 29.8031 33.6056V31.3103C28.9698 31.2413 28.1354 31.4289 27.4111 31.8481C26.6868 32.2672 26.107 32.8979 25.7489 33.6562ZM17.6792 33.6562V31.5375H15.4939V44.1521H17.6792V37.4657C17.6405 36.9301 17.7208 36.3926 17.9143 35.8919C18.1079 35.3913 18.4098 34.94 18.7982 34.5706C19.1867 34.2013 19.652 33.9231 20.1606 33.7562C20.6692 33.5893 21.2084 33.5379 21.7393 33.6056V31.3103C20.9051 31.2404 20.0695 31.4275 19.344 31.8466C18.6186 32.2658 18.0378 32.8971 17.6792 33.6562ZM10.2956 40.8476H3.65469L2.48887 44.1521H0L5.78066 28.2003H8.18844L13.9464 44.1521H11.4575L10.2956 40.8476ZM9.52335 38.6536L6.98109 31.4234L4.42894 38.6536H9.52335Z" fill="white"/>
</svg>
