<svg width="184" height="83" viewBox="0 0 184 83" fill="none" xmlns="http://www.w3.org/2000/svg">
<path fill-rule="evenodd" clip-rule="evenodd" d="M73.6425 34.752V36.7814H78.9626C78.5406 38.9496 76.7641 40.5413 73.8187 40.5413C73.067 40.5606 72.3189 40.4294 71.6181 40.1554C70.9173 39.8813 70.2776 39.4699 69.7364 38.945C69.1952 38.4202 68.7632 37.7923 68.4656 37.098C68.1679 36.4038 68.0106 35.6569 68.0027 34.9009C67.9948 34.1449 68.1365 33.3949 68.4196 32.6945C68.7027 31.9941 69.1214 31.3573 69.6516 30.8211C70.1817 30.2849 70.8126 29.8601 71.5076 29.5713C72.2025 29.2825 72.9477 29.1355 73.6996 29.139C74.645 29.1295 75.5765 29.3684 76.4018 29.832C77.2271 30.2956 77.9178 30.9679 78.4054 31.7822H80.9773C80.4308 30.4462 79.5323 29.2853 78.3783 28.4246C77.2244 27.5638 75.8589 27.0358 74.4286 26.8973C72.9984 26.7588 71.5577 27.0151 70.2616 27.6386C68.9655 28.2621 67.8631 29.2292 67.073 30.4358C66.2829 31.6424 65.8352 33.0428 65.7779 34.4862C65.7206 35.9296 66.0559 37.3614 66.7479 38.6275C67.4398 39.8935 68.4621 40.9459 69.7046 41.6712C70.9472 42.3966 72.363 42.7675 73.7997 42.744C78.3025 42.744 81.2221 39.7407 81.2221 35.7299V34.752H73.6425ZM80.4905 49.5629C80.8629 49.5626 81.22 49.4138 81.4834 49.1492C81.7469 48.8845 81.8951 48.5256 81.8956 48.1512C81.9005 47.961 81.8675 47.7718 81.7985 47.5946C81.7295 47.4175 81.6259 47.256 81.4938 47.1198C81.3617 46.9835 81.2039 46.8752 81.0295 46.8013C80.8552 46.7273 80.6679 46.6892 80.4786 46.6892C80.2894 46.6892 80.1021 46.7273 79.9277 46.8013C79.7534 46.8752 79.5955 46.9835 79.4635 47.1198C79.3314 47.256 79.2278 47.4175 79.1588 47.5946C79.0898 47.7718 79.0568 47.961 79.0617 48.1512C79.0625 48.3384 79.1003 48.5237 79.1727 48.6962C79.2451 48.8687 79.3508 49.0251 79.4836 49.1563C79.6165 49.2875 79.7738 49.391 79.9466 49.4608C80.1195 49.5306 80.3043 49.5653 80.4905 49.5629ZM43.3335 48.2221H41.0807V63.6171H49.791V61.4747H43.3335V48.2221ZM56.6143 61.7477C55.7844 61.752 54.9719 61.5086 54.2798 61.0482C53.5876 60.5879 53.047 59.9313 52.7264 59.1617C52.4058 58.3921 52.3197 57.5442 52.4789 56.7253C52.6382 55.9064 53.0356 55.1535 53.6209 54.562C54.2062 53.9705 54.953 53.567 55.7666 53.4026C56.5802 53.2382 57.4241 53.3203 58.1912 53.6386C58.9584 53.9569 59.6143 54.497 60.0758 55.1904C60.5373 55.8839 60.7837 56.6994 60.7837 57.5338C60.7954 58.0885 60.6958 58.64 60.4907 59.1551C60.2856 59.6702 59.9792 60.1385 59.59 60.5319C59.2008 60.9252 58.7366 61.2357 58.2254 61.4446C57.7141 61.6535 57.1661 61.7566 56.6143 61.7477ZM56.6143 63.8173C57.8512 63.8175 59.0604 63.4489 60.0889 62.7581C61.1174 62.0674 61.9191 61.0855 62.3926 59.9367C62.8661 58.7878 62.99 57.5236 62.7488 56.304C62.5077 55.0843 61.9121 53.9639 61.0376 53.0845C60.163 52.2051 59.0487 51.6062 57.8356 51.3635C56.6225 51.1209 55.3651 51.2453 54.2223 51.7212C53.0795 52.197 52.1028 53.0029 51.4156 54.0368C50.7284 55.0708 50.3616 56.2864 50.3616 57.53C50.3572 58.3568 50.5159 59.1763 50.8285 59.941C51.1412 60.7058 51.6016 61.4006 52.1831 61.9853C52.7645 62.57 53.4556 63.033 54.2162 63.3474C54.9768 63.6619 55.7919 63.8216 56.6143 63.8173ZM70.6952 61.8521C71.5445 61.8498 72.374 61.5947 73.0792 61.1189C73.7844 60.6432 74.3336 59.9681 74.6576 59.1789C74.9816 58.3896 75.0658 57.5216 74.8997 56.6843C74.7335 55.847 74.3244 55.0779 73.7239 54.4741C73.1235 53.8703 72.3587 53.4589 71.5259 53.2916C70.6931 53.1244 69.8297 53.2089 69.0446 53.5344C68.2595 53.86 67.5879 54.412 67.1146 55.1209C66.6412 55.8298 66.3873 56.6637 66.3848 57.5175C66.3738 58.0897 66.4778 58.6582 66.6905 59.189C66.9032 59.7199 67.2203 60.2021 67.6228 60.6068C68.0252 61.0115 68.5048 61.3304 69.0327 61.5444C69.5606 61.7583 70.1261 61.863 70.6952 61.8521ZM77.0889 51.4428V63.8833C77.1291 64.6543 77.0061 65.4251 76.7281 66.1448C76.4501 66.8645 76.0235 67.5168 75.4763 68.0585C74.9291 68.6002 74.2739 69.019 73.5538 69.2874C72.8338 69.5557 72.0653 69.6674 71.2992 69.6152C68.5434 69.6152 65.8352 68.3999 65.3932 65.3946H67.4936C68.0271 66.9968 69.8036 67.6337 71.2677 67.6423C71.7659 67.6699 72.2642 67.5915 72.7302 67.4123C73.1962 67.2332 73.6193 66.9572 73.9721 66.6025C74.3248 66.2478 74.5992 65.8223 74.7773 65.3537C74.9554 64.8852 75.0332 64.3842 75.0056 63.8833V61.4067C74.516 62.1678 73.8399 62.7895 73.0424 63.2121C72.2448 63.6348 71.3526 63.8441 70.4514 63.8201C68.8117 63.7914 67.2489 63.1163 66.0994 61.9403C64.95 60.7644 64.3059 59.1816 64.3059 57.5328C64.3059 55.8841 64.95 54.3013 66.0994 53.1253C67.2489 51.9494 68.8117 51.2743 70.4514 51.2455C71.3511 51.2176 72.2429 51.4233 73.0406 51.8427C73.8383 52.262 74.515 52.881 75.0056 53.6398V51.4467L77.0889 51.4428ZM79.438 63.6171H81.545V51.4467H79.438V63.6209V63.6171ZM88.2683 63.8173C87.3965 63.8314 86.5316 63.6598 85.7307 63.3135C85.0299 63.0149 84.4186 62.538 83.957 61.9296C83.526 61.3549 83.2801 60.6616 83.2521 59.9424H85.6525C85.6761 60.2132 85.758 60.4757 85.8926 60.7115C86.0271 60.9473 86.2111 61.1509 86.4317 61.3081C86.9509 61.6454 87.5523 61.8327 88.1702 61.8495C88.7881 61.8664 89.3987 61.7123 89.9353 61.4039C90.124 61.2805 90.279 61.1116 90.386 60.9125C90.493 60.7134 90.5486 60.4905 90.5478 60.2642C90.5549 60.038 90.4954 59.8147 90.3768 59.6223C90.2582 59.43 90.0857 59.2771 89.881 59.183C89.2052 58.8656 88.4997 58.6166 87.7749 58.4398C87.0231 58.2449 86.2843 58.0025 85.563 57.7138C84.9932 57.4743 84.4879 57.1024 84.0884 56.6288C83.6564 56.0877 83.4362 55.4064 83.4692 54.7134C83.4669 54.0833 83.6648 53.4689 84.0341 52.9598C84.4471 52.4008 85.0045 51.9663 85.6459 51.7033C86.4063 51.3843 87.2244 51.2274 88.0483 51.2427C89.2357 51.1854 90.4048 51.554 91.347 52.2827C91.7623 52.6293 92.0976 53.0627 92.3293 53.5528C92.5611 54.0428 92.6839 54.5778 92.6892 55.1204H90.3687C90.3563 54.8525 90.2878 54.5902 90.1676 54.3508C90.0475 54.1113 89.8784 53.9 89.6714 53.7308C89.1818 53.3622 88.579 53.1782 87.9682 53.2107C87.4074 53.1774 86.8501 53.3203 86.3736 53.6197C86.1955 53.7366 86.0496 53.897 85.9497 54.0859C85.8497 54.2748 85.799 54.486 85.8021 54.7C85.798 54.8644 85.8282 55.0279 85.8909 55.1798C85.9536 55.3318 86.0473 55.4688 86.166 55.582C86.4255 55.8275 86.7322 56.0171 87.0671 56.1394C87.4246 56.2767 87.939 56.4407 88.6103 56.6316C89.3417 56.8201 90.0596 57.0579 90.7593 57.3432C91.313 57.5789 91.8055 57.9393 92.1986 58.3967C92.6207 58.9179 92.8428 59.5741 92.8245 60.246C92.8328 60.902 92.6355 61.544 92.2605 62.081C91.856 62.6444 91.3045 63.0845 90.6669 63.3528C89.9087 63.6737 89.0918 63.8307 88.2692 63.8134L88.2683 63.8173ZM97.192 53.4885V60.2881C97.1672 60.4834 97.1887 60.6819 97.255 60.8672C97.3212 61.0525 97.4302 61.2193 97.573 61.3541C97.9457 61.6374 98.4113 61.7684 98.8762 61.7209H100.356V63.62H98.5466C97.61 63.6878 96.6809 63.4115 95.9318 62.8423C95.623 62.4986 95.3888 62.094 95.2441 61.6542C95.0995 61.2144 95.0475 60.7492 95.0916 60.2881V53.4885H93.5227V51.4467H95.084V48.382H97.191V51.4467H100.351V53.4923L97.192 53.4885ZM102.259 63.6171H104.365V51.4467H102.259V63.6209V63.6171ZM112.505 63.8173C113.751 63.8241 114.968 63.4391 115.986 62.7162C117.005 61.9933 117.772 60.9686 118.183 59.7853H115.85C115.523 60.3867 115.039 60.8871 114.45 61.2328C113.861 61.5785 113.19 61.7565 112.508 61.7477C111.396 61.7477 110.329 61.3033 109.542 60.5123C108.755 59.7214 108.313 58.6486 108.313 57.53C108.313 56.4114 108.755 55.3386 109.542 54.5476C110.329 53.7566 111.396 53.3123 112.508 53.3123C113.19 53.3039 113.862 53.4825 114.45 53.8287C115.039 54.1749 115.523 54.6757 115.85 55.2775H118.187C117.776 54.0942 117.008 53.0695 115.99 52.3466C114.972 51.6237 113.755 51.2387 112.508 51.2455C110.85 51.2455 109.259 51.908 108.086 53.087C106.914 54.2661 106.255 55.8653 106.255 57.5328C106.255 59.2003 106.914 60.7995 108.086 61.9786C109.259 63.1577 110.85 63.8201 112.508 63.8201L112.505 63.8173ZM124.132 63.8173C123.26 63.8315 122.395 63.6598 121.594 63.3135C120.893 63.0146 120.282 62.5377 119.819 61.9296C119.389 61.3546 119.144 60.6614 119.115 59.9424H121.515C121.539 60.2132 121.621 60.4756 121.755 60.7114C121.89 60.9472 122.074 61.1508 122.294 61.3081C122.814 61.6453 123.415 61.8326 124.033 61.8495C124.651 61.8664 125.262 61.7122 125.799 61.4039C125.987 61.2803 126.142 61.1114 126.249 60.9123C126.356 60.7133 126.412 60.4905 126.411 60.2642C126.418 60.038 126.359 59.8147 126.24 59.6223C126.122 59.43 125.949 59.2771 125.744 59.183C125.069 58.8655 124.364 58.6166 123.639 58.4398C122.887 58.2452 122.149 58.0028 121.427 57.7138C120.857 57.4745 120.352 57.1026 119.953 56.6288C119.521 56.0877 119.301 55.4064 119.334 54.7134C119.331 54.0832 119.529 53.4687 119.899 52.9598C120.312 52.4008 120.869 51.9663 121.51 51.7033C122.27 51.3843 123.088 51.2274 123.912 51.2427C125.099 51.1856 126.269 51.5542 127.211 52.2827C127.627 52.6293 127.962 53.0627 128.194 53.5528C128.426 54.0428 128.548 54.5778 128.554 55.1204H126.233C126.221 54.8524 126.152 54.5901 126.031 54.3507C125.911 54.1112 125.742 53.9 125.535 53.7308C125.045 53.3619 124.443 53.1778 123.832 53.2107C123.271 53.1775 122.714 53.3204 122.238 53.6197C122.06 53.7367 121.914 53.8971 121.814 54.086C121.714 54.2749 121.663 54.4861 121.666 54.7C121.663 54.8645 121.693 55.028 121.756 55.1799C121.819 55.3318 121.913 55.4688 122.031 55.582C122.291 55.8277 122.597 56.0174 122.932 56.1394C123.289 56.2767 123.803 56.4407 124.475 56.6316C125.206 56.82 125.924 57.0577 126.624 57.3432C127.178 57.5788 127.67 57.9392 128.064 58.3967C128.485 58.9183 128.707 59.5742 128.69 60.246C128.698 60.902 128.501 61.544 128.126 62.081C127.721 62.6444 127.169 63.0845 126.531 63.3528C125.773 63.6738 124.957 63.8308 124.135 63.8134L124.132 63.8173ZM103.311 49.56C103.684 49.56 104.041 49.4113 104.305 49.1466C104.568 48.882 104.717 48.5229 104.717 48.1483C104.722 47.9582 104.689 47.7689 104.62 47.5918C104.551 47.4146 104.448 47.2531 104.316 47.1169C104.184 46.9806 104.026 46.8723 103.851 46.7984C103.677 46.7244 103.49 46.6863 103.3 46.6863C103.111 46.6863 102.924 46.7244 102.749 46.7984C102.575 46.8723 102.417 46.9806 102.285 47.1169C102.153 47.2531 102.05 47.4146 101.981 47.5918C101.912 47.7689 101.879 47.9582 101.883 48.1483C101.884 48.3356 101.922 48.5208 101.994 48.6933C102.067 48.8658 102.173 49.0222 102.305 49.1534C102.438 49.2846 102.596 49.3881 102.768 49.4579C102.941 49.5277 103.126 49.5624 103.312 49.56H103.311ZM85.5401 32.4842V30.4366H83.433V42.6109H85.5401V36.1579C85.5029 35.6415 85.58 35.1232 85.7661 34.6404C85.9521 34.1576 86.2424 33.7224 86.616 33.366C86.9896 33.0096 87.4372 32.741 87.9265 32.5796C88.4158 32.4182 88.9347 32.3679 89.4457 32.4325V30.2173C88.643 30.1508 87.8391 30.3319 87.1414 30.7364C86.4436 31.1408 85.885 31.7496 85.5401 32.4813V32.4842ZM92.0834 35.5345C92.2692 34.6242 92.7618 33.8062 93.4781 33.2189C94.1944 32.6315 95.0903 32.3108 96.0146 32.3108C96.9389 32.3108 97.8349 32.6315 98.5512 33.2189C99.2674 33.8062 99.7601 34.6242 99.9459 35.5345H92.0834ZM96.0023 42.813C97.2323 42.8283 98.4396 42.4787 99.4731 41.8079C100.507 41.1371 101.32 40.1749 101.813 39.0416H99.4525C99.0574 39.584 98.5376 40.0221 97.9374 40.3185C97.3372 40.6149 96.6745 40.7607 96.0061 40.7434C95.0559 40.7563 94.1332 40.4235 93.4079 39.8063C92.6827 39.189 92.2038 38.329 92.0595 37.3848H102.104C102.141 37.0989 102.159 36.811 102.159 36.5228C102.137 35.3069 101.759 34.1246 101.071 33.124C100.384 32.1235 99.4176 31.3493 98.2941 30.8985C97.1707 30.4478 95.9399 30.3406 94.7561 30.5903C93.5723 30.84 92.4882 31.4356 91.6398 32.3024C90.7914 33.1691 90.2163 34.2684 89.9869 35.4624C89.7574 36.6564 89.8837 37.892 90.3499 39.0141C90.8161 40.1362 91.6015 41.095 92.6076 41.7701C93.6136 42.4452 94.7955 42.8067 96.0051 42.8092L96.0023 42.813ZM105.781 35.5345C105.967 34.6237 106.459 33.8051 107.176 33.2173C107.892 32.6295 108.788 32.3084 109.713 32.3084C110.638 32.3084 111.534 32.6295 112.251 33.2173C112.967 33.8051 113.46 34.6237 113.645 35.5345H105.781ZM109.7 42.813C110.93 42.8283 112.138 42.4787 113.171 41.8079C114.205 41.1371 115.018 40.1749 115.511 39.0416H113.15C112.755 39.584 112.236 40.0221 111.635 40.3185C111.035 40.6149 110.373 40.7607 109.704 40.7434C108.754 40.7563 107.831 40.4235 107.106 39.8063C106.381 39.189 105.902 38.329 105.758 37.3848H115.802C115.839 37.0989 115.857 36.811 115.857 36.5228C115.835 35.3069 115.457 34.1246 114.769 33.124C114.082 32.1235 113.116 31.3493 111.992 30.8985C110.869 30.4478 109.638 30.3406 108.454 30.5903C107.27 30.84 106.186 31.4356 105.338 32.3024C104.489 33.1691 103.914 34.2684 103.685 35.4624C103.455 36.6564 103.582 37.892 104.048 39.0141C104.514 40.1362 105.3 41.095 106.306 41.7701C107.312 42.4452 108.494 42.8067 109.703 42.8092L109.7 42.813ZM123.809 30.1225C123.024 30.0773 122.242 30.2457 121.545 30.6099C120.848 30.9741 120.261 31.5208 119.847 32.1921V30.4395H117.741V42.6138H119.851V36.1579C119.851 33.2848 121.464 32.1404 123.402 32.1404C123.822 32.1025 124.246 32.1565 124.643 32.2985C125.041 32.4406 125.403 32.6674 125.705 32.9634C126.007 33.2595 126.242 33.6177 126.393 34.0135C126.545 34.4094 126.61 34.8335 126.583 35.2567V42.6109H128.69V35.1351C128.738 34.4736 128.646 33.8093 128.42 33.1863C128.193 32.5632 127.838 31.9958 127.376 31.5214C126.915 31.0471 126.359 30.6769 125.744 30.4352C125.13 30.1935 124.472 30.086 123.813 30.1196L123.809 30.1225ZM57.4792 30.4395L54.812 39.7168L51.9543 30.4395H49.9196L47.0619 39.6919L44.3947 30.4395H42.1971L45.9512 42.6138H48.1068L50.9408 33.6047L53.7737 42.6138H55.9332L59.6873 30.4395H57.4792ZM35.3948 40.7405C34.5649 40.7449 33.7524 40.5015 33.0603 40.0411C32.3681 39.5807 31.8275 38.9241 31.5069 38.1546C31.1863 37.385 31.1002 36.537 31.2594 35.7182C31.4187 34.8993 31.8161 34.1464 32.4014 33.5549C32.9867 32.9633 33.7335 32.5598 34.5471 32.3954C35.3607 32.231 36.2046 32.3132 36.9717 32.6315C37.7388 32.9498 38.3947 33.4898 38.8563 34.1833C39.3178 34.8767 39.5642 35.6923 39.5642 36.5267C39.576 37.0814 39.4765 37.6329 39.2714 38.1481C39.0663 38.6633 38.76 39.1316 38.3708 39.525C37.9815 39.9184 37.5173 40.2288 37.006 40.4377C36.4946 40.6465 35.9466 40.7495 35.3948 40.7405ZM35.3948 42.8101C36.6314 42.8101 37.8403 42.4414 38.8686 41.7507C39.8968 41.0599 40.6982 40.0781 41.1715 38.9295C41.6447 37.7808 41.7686 36.5168 41.5273 35.2974C41.2861 34.0779 40.6905 32.9578 39.8161 32.0787C38.9416 31.1995 37.8275 30.6008 36.6146 30.3582C35.4017 30.1157 34.1445 30.2402 33.002 30.716C31.8594 31.1918 30.8829 31.9975 30.1958 33.0313C29.5088 34.0651 29.1421 35.2805 29.1421 36.5238C29.1378 37.3505 29.2966 38.1699 29.6093 38.9346C29.922 39.6992 30.3824 40.3939 30.9639 40.9785C31.5453 41.5631 32.2364 42.026 32.9969 42.3404C33.7575 42.6548 34.5725 42.8144 35.3948 42.8101ZM24.8069 32.4842V30.4366H22.6998V42.6109H24.8069V36.1579C24.7696 35.6415 24.8468 35.1232 25.0328 34.6404C25.2189 34.1576 25.5092 33.7224 25.8828 33.366C26.2564 33.0096 26.704 32.741 27.1933 32.5796C27.6826 32.4182 28.2015 32.3679 28.7125 32.4325V30.2173C27.9097 30.1508 27.1059 30.3319 26.4081 30.7364C25.7104 31.1408 25.1518 31.7496 24.8069 32.4813V32.4842ZM17.033 32.4842V30.4366H14.9259V42.6109H17.033V36.1579C16.9957 35.641 17.0731 35.1223 17.2595 34.6391C17.4459 34.1559 17.7368 33.7203 18.111 33.3639C18.4852 33.0075 18.9335 32.739 19.4235 32.5779C19.9134 32.4169 20.4328 32.3672 20.9442 32.4325V30.2173C20.1406 30.1499 19.3357 30.3305 18.6368 30.735C17.9379 31.1395 17.3784 31.7487 17.033 32.4813V32.4842ZM9.92391 39.4218H3.52261L2.39858 42.6109H0L5.57065 27.2169H7.89016L13.437 42.6119H11.0394L9.9201 39.4227L9.92391 39.4218ZM9.17995 37.3043L6.73088 30.3265L4.27229 37.3043H9.17995Z" fill="black"/>
<path fill-rule="evenodd" clip-rule="evenodd" d="M184 47.0288L162.246 31.3522L159.225 62.3711L184 47.0288Z" fill="#1B9E61"/>
<path fill-rule="evenodd" clip-rule="evenodd" d="M140.493 15.6756L162.247 31.3522L159.226 62.3711L140.493 15.6756Z" fill="#1B8056"/>
<path fill-rule="evenodd" clip-rule="evenodd" d="M140.493 15.6756L118.739 0L159.225 62.3711L140.493 15.6756Z" fill="#004341"/>
<path fill-rule="evenodd" clip-rule="evenodd" d="M149.265 47.0288L151.689 50.7638L142.571 72.6865L125.917 83L149.265 47.0288Z" fill="#86BF6B"/>
<path fill-rule="evenodd" clip-rule="evenodd" d="M159.225 62.3711L151.689 50.7619L142.571 72.6846L159.225 62.3711Z" fill="#E3EDC4"/>
</svg>
